<?xml version="1.0" encoding="UTF-8" standalone="no"?>
<!-- Created with Inkscape (http://www.inkscape.org/) -->

<svg
   width="68.749329mm"
   height="22.902735mm"
   viewBox="0 0 68.749329 22.902735"
   version="1.1"
   id="svg1"
   xml:space="preserve"
   inkscape:version="1.3.2 (1:1.3.2+202311252150+091e20ef0f)"
   sodipodi:docname="moru.svg"
   xmlns:inkscape="http://www.inkscape.org/namespaces/inkscape"
   xmlns:sodipodi="http://sodipodi.sourceforge.net/DTD/sodipodi-0.dtd"
   xmlns="http://www.w3.org/2000/svg"
   xmlns:svg="http://www.w3.org/2000/svg"><sodipodi:namedview
     id="namedview1"
     pagecolor="#ffffff"
     bordercolor="#666666"
     borderopacity="1.0"
     inkscape:showpageshadow="2"
     inkscape:pageopacity="0.0"
     inkscape:pagecheckerboard="0"
     inkscape:deskcolor="#d1d1d1"
     inkscape:document-units="mm"
     inkscape:zoom="1.5308737"
     inkscape:cx="-83.612382"
     inkscape:cy="-122.80569"
     inkscape:window-width="1848"
     inkscape:window-height="1016"
     inkscape:window-x="72"
     inkscape:window-y="27"
     inkscape:window-maximized="1"
     inkscape:current-layer="layer1" /><defs
     id="defs1" /><g
     inkscape:label="Layer 1"
     inkscape:groupmode="layer"
     id="layer1"
     transform="translate(-71.232388,-261.0761)"><path
       style="fill:#002248;fill-opacity:1"
       d="m 80.837952,283.87092 c -0.02262,-0.0589 -0.03095,-1.11621 -0.01851,-2.3495 l 0.02261,-2.24234 h 0.292516 c 0.237109,0 0.301396,0.0376 0.339395,0.19858 l 0.04688,0.19858 0.157676,-0.17423 c 0.230984,-0.25523 0.679134,-0.37677 1.136424,-0.30819 1.440641,0.21603 1.7435,2.70228 0.414566,3.40327 -0.403427,0.21281 -1.093418,0.1919 -1.410786,-0.0427 l -0.257004,-0.19001 v 0.67294 c 0,0.37012 -0.02313,0.73321 -0.05139,0.80687 -0.06263,0.16321 -0.611632,0.18507 -0.672377,0.0268 z m 2.06008,-1.88765 c 0.277613,-0.19445 0.441688,-0.56995 0.441688,-1.01086 0,-0.68162 -0.367659,-1.143 -0.910817,-1.143 -0.492593,0 -0.758355,0.27541 -0.898712,0.93133 -0.186107,0.86973 0.717941,1.67774 1.367841,1.22253 z m -4.778838,0.7284 c -1.27965,-0.30491 -1.821273,-1.89373 -0.984547,-2.88812 0.555678,-0.66039 1.6555,-0.83992 2.41399,-0.39406 1.039195,0.61088 1.178738,2.04419 0.276347,2.83851 -0.512603,0.45121 -1.067937,0.59565 -1.70579,0.44367 z m 1.055788,-0.76776 c 0.294442,-0.17952 0.524072,-0.6052 0.524072,-0.9715 0,-0.64297 -0.512883,-1.14212 -1.174128,-1.14268 -0.316875,-2.7e-4 -0.416833,0.0467 -0.6985,0.32839 -0.302732,0.30273 -0.328705,0.36577 -0.328705,0.79783 0,0.38478 0.04062,0.51741 0.225927,0.73763 0.124261,0.14768 0.305236,0.30059 0.402167,0.3398 0.309254,0.12511 0.760304,0.0866 1.049167,-0.0895 z m 7.782414,0.73649 c -1.336342,-0.41567 -1.686382,-2.19734 -0.606576,-3.0874 0.435212,-0.35874 1.065652,-0.5001 1.617205,-0.3626 0.552207,0.13765 0.807135,0.31286 0.774382,0.53221 -0.04385,0.2937 -0.279938,0.38256 -0.566555,0.21325 -0.312652,-0.18469 -0.886445,-0.18853 -1.192093,-0.008 -0.343103,0.20267 -0.511372,0.54489 -0.511372,1.03999 0,0.37178 0.03947,0.47575 0.280418,0.73867 0.234563,0.25596 0.350914,0.31277 0.71153,0.34742 0.34342,0.033 0.500891,0.002 0.774162,-0.15138 0.284319,-0.1598 0.365436,-0.17423 0.473803,-0.0843 0.315705,0.26201 0.0025,0.65243 -0.67358,0.8397 -0.416002,0.11522 -0.667489,0.11113 -1.081324,-0.0176 z m 2.862565,-0.0146 c -0.587454,-0.20923 -0.845863,-0.7696 -0.612477,-1.32817 0.175432,-0.41987 0.591642,-0.64528 1.403422,-0.76008 0.576533,-0.0815 0.68748,-0.12243 0.68748,-0.25337 0,-0.0859 -0.07953,-0.23568 -0.176739,-0.33288 -0.147196,-0.1472 -0.249805,-0.16987 -0.613834,-0.13562 -0.240401,0.0226 -0.545921,0.0693 -0.678932,0.10367 -0.254144,0.0657 -0.389304,-0.0404 -0.391865,-0.30762 -0.002,-0.20759 0.643143,-0.45736 1.181294,-0.45736 0.613019,0 0.973636,0.16103 1.207297,0.5391 0.167208,0.27055 0.193856,0.44603 0.2217,1.45992 0.03591,1.30753 -0.0256,1.54123 -0.39438,1.49855 -0.174335,-0.0202 -0.236613,-0.0822 -0.269472,-0.26841 l -0.04274,-0.24218 -0.169334,0.19036 c -0.186295,0.20943 -0.629252,0.42309 -0.865114,0.41728 -0.08299,-0.002 -0.301827,-0.0575 -0.486311,-0.12319 z m 0.9813,-0.59839 c 0.260632,-0.13478 0.497125,-0.55836 0.497125,-0.89041 0,-0.17172 -0.02702,-0.17854 -0.486833,-0.1229 -0.745707,0.0902 -1.027714,0.32673 -0.916765,0.76879 0.08792,0.35031 0.491421,0.45915 0.906473,0.24452 z m 10.387539,0.59146 c -0.44437,-0.13674 -0.88211,-0.52698 -1.05484,-0.94039 -0.172442,-0.4127 -0.146635,-1.241 0.0507,-1.62783 0.29768,-0.58351 0.89032,-0.93689 1.57328,-0.93814 0.42145,-7.8e-4 0.98872,0.33877 1.20154,0.71919 0.23101,0.41297 0.26493,1.09699 0.0583,1.17628 -0.0737,0.0283 -0.62611,0.0514 -1.22766,0.0514 -0.60156,0 -1.09375,0.0203 -1.09375,0.0451 0,0.0248 0.0549,0.17635 0.12191,0.33682 0.22844,0.54673 1.04255,0.80946 1.57143,0.50713 0.34317,-0.19618 0.58112,-0.16013 0.64587,0.0978 0.069,0.27485 -0.0825,0.40435 -0.68094,0.58206 -0.50504,0.14999 -0.65175,0.1488 -1.16586,-0.009 z m 1.2471,-2.30033 c -0.0951,-0.38957 -0.34188,-0.5715 -0.77514,-0.5715 -0.32853,0 -0.42215,0.0409 -0.63264,0.2765 -0.42395,0.47447 -0.36241,0.52783 0.60879,0.52783 h 0.85584 z m 1.60807,2.30726 c -0.61354,-0.21852 -0.86329,-0.80362 -0.58348,-1.36691 0.20109,-0.40479 0.6119,-0.61461 1.42745,-0.72905 0.70039,-0.0983 0.80533,-0.23093 0.45771,-0.57854 -0.14719,-0.1472 -0.2498,-0.16987 -0.61383,-0.13562 -0.2404,0.0226 -0.54592,0.0693 -0.67893,0.10367 -0.25415,0.0657 -0.38931,-0.0404 -0.39187,-0.30762 -0.004,-0.38678 1.44018,-0.60499 2.00811,-0.30348 0.46791,0.24841 0.56086,0.54298 0.59965,1.9004 0.0378,1.32118 -0.009,1.4881 -0.40007,1.4425 -0.1655,-0.0193 -0.22888,-0.0842 -0.26125,-0.26762 l -0.0427,-0.24218 -0.16934,0.19036 c -0.18629,0.20943 -0.62925,0.42309 -0.86511,0.41728 -0.083,-0.002 -0.30183,-0.0575 -0.48631,-0.12319 z m 0.97319,-0.5942 c 0.28351,-0.1466 0.50523,-0.51998 0.50523,-0.85078 0,-0.22506 -0.001,-0.22548 -0.48683,-0.16672 -0.74571,0.0902 -1.02771,0.32673 -0.91676,0.76879 0.0871,0.34721 0.49144,0.45914 0.89836,0.24871 z m 16.32421,0.62509 c -0.44793,-0.12513 -0.96386,-0.60197 -1.13436,-1.04843 -0.21046,-0.55108 -0.129,-1.3113 0.18871,-1.76094 0.84014,-1.18903 2.65944,-0.81879 2.86981,0.58402 0.0898,0.5985 0.0293,0.62803 -1.28584,0.62803 -1.24541,0 -1.28144,0.0183 -0.99416,0.50463 0.28834,0.48811 0.94016,0.6503 1.51574,0.37717 0.38002,-0.18033 0.58317,-0.13028 0.61582,0.15172 0.0221,0.19079 -0.0274,0.25517 -0.30521,0.39689 -0.40862,0.20846 -1.05794,0.28216 -1.47051,0.16691 z m 1.19902,-2.28117 c 0,-0.25121 -0.44871,-0.67082 -0.71736,-0.67082 -0.32781,0 -0.70145,0.22273 -0.84754,0.50523 -0.0706,0.1366 -0.12843,0.26931 -0.12843,0.2949 0,0.0256 0.381,0.0465 0.84667,0.0465 0.80067,0 0.84666,-0.01 0.84666,-0.17585 z m 9.69433,2.30228 c -0.88013,-0.22906 -1.39917,-0.88529 -1.39514,-1.76388 0.005,-1.18064 1.06628,-1.98769 2.26127,-1.72026 0.52423,0.11731 1.0214,0.50579 1.24184,0.97033 0.29581,0.62338 0.11281,1.59707 -0.38523,2.04964 -0.45171,0.41048 -1.17757,0.60606 -1.72274,0.46417 z m 1.01864,-0.77339 c 0.51842,-0.32041 0.6717,-1.1252 0.3173,-1.66608 -0.28204,-0.43045 -0.96829,-0.57775 -1.47379,-0.31635 -0.25865,0.13376 -0.57631,0.68413 -0.57995,1.00483 -0.003,0.27739 0.31897,0.84447 0.56698,0.99814 0.31862,0.19742 0.83136,0.18842 1.16946,-0.0205 z m -60.351849,0.71119 c -0.03325,-0.0333 -0.06046,-0.96707 -0.06046,-2.07516 v -2.01472 l -0.783166,-0.0243 -0.783167,-0.0243 -0.02795,-0.24482 c -0.01587,-0.13905 0.0207,-0.27565 0.08467,-0.3162 0.06194,-0.0393 0.893663,-0.0714 1.84828,-0.0714 0.954616,0 1.786342,0.0321 1.84828,0.0714 0.06396,0.0406 0.100539,0.17715 0.08467,0.3162 l -0.02795,0.24482 -0.781669,0.0243 -0.781668,0.0243 -0.02267,2.05001 -0.02267,2.05001 -0.257043,0.0252 c -0.141373,0.0138 -0.284248,-0.002 -0.3175,-0.0353 z m 1.926691,-0.0506 c -0.02403,-0.0626 -0.03329,-0.83657 -0.02058,-1.7199 l 0.0231,-1.60606 h 0.296333 c 0.281103,0 0.298509,0.0171 0.338667,0.33208 l 0.04233,0.33208 0.115909,-0.21834 c 0.144963,-0.27308 0.581333,-0.51464 0.858964,-0.47549 0.177888,0.0251 0.21046,0.075 0.21046,0.32253 0,0.25734 -0.03081,0.2992 -0.254,0.34513 -0.70354,0.14478 -0.896601,0.50778 -0.966359,1.81701 l -0.04964,0.93166 -0.275748,0.0266 c -0.173215,0.0167 -0.291994,-0.0158 -0.319436,-0.0873 z m 9.798451,10e-4 c -0.07154,-0.0715 -0.1016,-0.55504 -0.1016,-1.63407 0,-1.60806 0.02801,-1.73567 0.381,-1.73567 0.352989,0 0.381,0.12761 0.381,1.73567 0,1.60806 -0.02801,1.73567 -0.381,1.73567 -0.09779,0 -0.22352,-0.0457 -0.2794,-0.1016 z m 8.390666,0.0179 c -0.401679,-0.16606 -0.448933,-0.43575 -0.448933,-2.56219 0,-1.42473 0.02838,-2.00531 0.1016,-2.07853 0.140621,-0.14062 0.368897,-0.12701 0.527353,0.0314 0.11305,0.11305 0.133047,0.41874 0.133047,2.03382 v 1.90077 l 0.215875,0.0984 c 0.173679,0.0791 0.210914,0.14911 0.1905,0.35801 -0.02166,0.22162 -0.06258,0.26227 -0.279375,0.27746 -0.1397,0.01 -0.33773,-0.0168 -0.440067,-0.0591 z m 2.785334,-0.0179 c -0.07386,-0.0739 -0.1016,-0.70866 -0.1016,-2.32536 0,-2.18119 0.0034,-2.2256 0.180043,-2.32011 0.130691,-0.0699 0.235127,-0.0713 0.381,-0.005 0.194572,0.0887 0.200957,0.12255 0.200957,1.06704 v 0.97548 h 1.185333 1.185333 v -1.01029 c 0,-0.93594 0.01246,-1.01425 0.169333,-1.06404 0.09313,-0.0296 0.246132,-0.0294 0.339996,4.2e-4 0.166417,0.0528 0.170102,0.11245 0.148166,2.39754 l -0.0225,2.34337 h -0.296328 -0.296334 l -0.02377,-1.03716 -0.02377,-1.03717 h -1.182727 -1.182727 v 0.95673 c 0,1.00488 -0.05093,1.15994 -0.381,1.15994 -0.09779,0 -0.22352,-0.0457 -0.2794,-0.1016 z m 11.359547,-0.0981 -0.24281,-0.20872 -0.0252,-2.15947 c -0.0247,-2.1129 -0.0215,-2.16066 0.14817,-2.2145 0.0953,-0.0303 0.24957,-0.0308 0.3427,-10e-4 0.1627,0.0516 0.16933,0.1281 0.16933,1.95304 0,1.7864 0.0101,1.90936 0.16934,2.06863 0.0931,0.0931 0.20984,0.16933 0.25936,0.16933 0.0506,0 0.0784,0.1206 0.0635,0.27517 -0.0241,0.24941 -0.0553,0.27757 -0.33406,0.30085 -0.22927,0.0191 -0.36931,-0.0274 -0.55033,-0.18305 z m 2.01115,0.057 c -0.50215,-0.25109 -0.60228,-0.52632 -0.60264,-1.65651 -2.9e-4,-0.91665 -0.0128,-0.99483 -0.15928,-0.99483 -0.21928,0 -0.37415,-0.21083 -0.30799,-0.41927 0.0352,-0.11084 0.12781,-0.1734 0.25677,-0.1734 0.1862,0 0.20369,-0.0375 0.22712,-0.48683 l 0.0254,-0.48684 h 0.29633 0.29633 l 0.0254,0.48684 0.0254,0.48683 h 0.37943 c 0.27318,0 0.39431,0.0388 0.43258,0.13851 0.0908,0.2365 -0.0953,0.41014 -0.46925,0.43786 l -0.35121,0.026 v 0.83038 c 0,0.94226 0.12305,1.21226 0.59552,1.30676 0.23628,0.0472 0.25941,0.0795 0.23542,0.3286 -0.024,0.24924 -0.0555,0.27828 -0.32294,0.29755 -0.16299,0.0118 -0.42506,-0.043 -0.58238,-0.12168 z m 1.36131,0.0411 c -0.0739,-0.0739 -0.1016,-0.70866 -0.1016,-2.32536 0,-2.18119 0.003,-2.2256 0.18004,-2.32011 0.13069,-0.0699 0.23513,-0.0713 0.381,-0.005 0.1924,0.0877 0.20096,0.12838 0.20096,0.95588 v 0.86432 l 0.23283,-0.22249 c 0.12806,-0.12237 0.41454,-0.27095 0.63663,-0.33017 0.54114,-0.1443 1.03215,0.0171 1.30997,0.43067 0.1866,0.27777 0.19425,0.35116 0.17209,1.651 l -0.0232,1.36031 h -0.29632 -0.29633 l -0.0423,-1.24021 c -0.0363,-1.06384 -0.0653,-1.26552 -0.20362,-1.41816 -0.33293,-0.36734 -1.0814,-0.12382 -1.34832,0.43867 -0.10391,0.21898 -0.14139,0.53135 -0.14139,1.1784 0,0.92532 -0.0557,1.08364 -0.381,1.08364 -0.0978,0 -0.22352,-0.0457 -0.2794,-0.1016 z m 5.334,0 c -0.0738,-0.0738 -0.1016,-0.69857 -0.1016,-2.27996 0,-1.86743 0.019,-2.19734 0.13305,-2.3114 0.17416,-0.17416 0.39925,-0.16862 0.61416,0.0151 0.16928,0.14473 2.02154,2.79314 2.25896,3.22994 0.1066,0.1961 0.12009,0.0342 0.12311,-1.47734 0.003,-1.74972 0.0315,-1.90076 0.35294,-1.90076 0.0805,0 0.20622,0.0599 0.2794,0.13304 0.11406,0.11406 0.13305,0.44397 0.13305,2.3114 0,2.33184 -0.009,2.38156 -0.42715,2.38156 -0.28794,0 -0.30403,-0.0191 -1.60541,-1.90581 l -1.10011,-1.59441 v 1.69897 c 0,1.47113 -0.018,1.70585 -0.13393,1.75035 -0.20945,0.0804 -0.41554,0.0607 -0.52647,-0.0502 z m 8.6419,-0.0219 c -0.49448,-0.21871 -0.61482,-0.54535 -0.61518,-1.66982 -3.1e-4,-0.94668 -0.008,-0.9901 -0.18217,-1.016 -0.39738,-0.0591 -0.43032,-0.57739 -0.0367,-0.57739 0.19638,0 0.21176,-0.0318 0.23549,-0.48683 l 0.0254,-0.48684 h 0.29634 0.29633 l 0.0254,0.48684 0.0254,0.48683 h 0.36772 c 0.4047,0 0.53444,0.14566 0.38255,0.42947 -0.0637,0.11902 -0.1782,0.1632 -0.42303,0.1632 h -0.33569 v 0.80035 c 0,0.98358 0.0875,1.20309 0.52682,1.32138 0.30503,0.0821 0.32792,0.10922 0.3037,0.35938 -0.0235,0.24321 -0.0561,0.27257 -0.32252,0.29048 -0.16298,0.011 -0.41941,-0.0345 -0.56983,-0.10105 z m 2.11482,0.0176 c -0.14196,-0.178 -1.05102,-3.12215 -1.0028,-3.24779 0.0562,-0.14646 0.50785,-0.15508 0.62241,-0.0119 0.0466,0.0582 0.2322,0.61053 0.41253,1.22738 0.18033,0.61685 0.3485,1.12168 0.37372,1.12183 0.0252,1.6e-4 0.2162,-0.54264 0.42442,-1.20621 0.36131,-1.15148 0.38937,-1.20775 0.61544,-1.23379 0.13027,-0.015 0.28587,0.0134 0.34577,0.0631 0.0599,0.0497 0.27648,0.63751 0.48129,1.3062 l 0.37237,1.21581 0.38334,-1.27891 c 0.38022,-1.26852 0.38545,-1.27912 0.64264,-1.3044 0.49199,-0.0484 0.4868,0.0746 -0.0755,1.78764 -0.55917,1.7035 -0.59948,1.76246 -1.11646,1.63271 -0.18425,-0.0462 -0.25321,-0.19105 -0.57893,-1.21568 l -0.36977,-1.16318 -0.36012,1.10066 c -0.19807,0.60537 -0.39941,1.14829 -0.44743,1.2065 -0.048,0.0582 -0.21134,0.10584 -0.36292,0.10584 -0.15158,0 -0.31358,-0.0476 -0.36001,-0.10584 z m 8.40083,0.003 c -0.024,-0.0626 -0.0333,-0.83657 -0.0206,-1.7199 l 0.0231,-1.60606 h 0.29634 c 0.27372,0 0.29974,0.0226 0.34096,0.29633 0.0432,0.28718 0.0479,0.29048 0.15067,0.10671 0.12728,-0.22758 0.52208,-0.44538 0.80732,-0.44538 0.14805,0 0.22128,0.0581 0.25813,0.20494 0.0795,0.31661 -0.0151,0.44788 -0.36269,0.50346 -0.59888,0.0958 -0.79201,0.49188 -0.85173,1.74694 l -0.0463,0.97366 -0.27575,0.0266 c -0.17321,0.0167 -0.29199,-0.0158 -0.31943,-0.0873 z m 2.17845,0.001 c -0.0739,-0.0739 -0.1016,-0.70866 -0.1016,-2.32536 0,-2.18119 0.003,-2.2256 0.18004,-2.32011 0.13069,-0.0699 0.23513,-0.0713 0.381,-0.005 0.19813,0.0903 0.20096,0.10893 0.20096,1.32667 v 1.2351 l 0.20325,-0.0268 c 0.1354,-0.0179 0.35568,-0.22465 0.65983,-0.61946 0.40878,-0.53061 0.4871,-0.59266 0.74809,-0.59266 0.43316,0 0.40537,0.17828 -0.13654,0.8757 l -0.47817,0.61541 0.56602,0.85013 c 0.31131,0.46757 0.5455,0.90359 0.52043,0.96894 -0.058,0.15117 -0.51084,0.1548 -0.66035,0.005 -0.0624,-0.0624 -0.31761,-0.42439 -0.56705,-0.80434 -0.35667,-0.54326 -0.49645,-0.6908 -0.65452,-0.6908 -0.1954,0 -0.20099,0.0196 -0.20099,0.70273 0,0.74063 -0.0695,0.90594 -0.381,0.90594 -0.0978,0 -0.22352,-0.0457 -0.2794,-0.1016 z m -52.619133,-4.01404 c -0.03326,-0.0333 -0.06047,-0.16708 -0.06047,-0.29738 0,-0.30939 0.271218,-0.47012 0.566362,-0.33564 0.167053,0.0761 0.20124,0.14619 0.179791,0.36854 -0.02384,0.24716 -0.05636,0.27708 -0.325845,0.29976 -0.164648,0.0139 -0.326573,-0.002 -0.359834,-0.0353 z m 8.998859,-2.62768 c -1.773995,-0.147 -3.332055,-0.88298 -4.614333,-2.17967 -1.521176,-1.53828 -2.251958,-3.53033 -2.130744,-5.80823 0.05989,-1.12546 0.29517,-2.03705 0.776831,-3.00982 0.709852,-1.43364 1.751571,-2.45955 3.21658,-3.16778 1.287528,-0.62243 1.769877,-0.7228 3.471333,-0.72238 1.251168,3.1e-4 1.527881,0.0259 2.116666,0.19595 2.403221,0.69398 4.182001,2.40785 4.936851,4.75669 0.26068,0.81117 0.35496,1.45282 0.35371,2.40739 -0.005,3.57686 -2.286782,6.55911 -5.603713,7.3229 -0.728355,0.16772 -1.861595,0.25977 -2.523181,0.20495 z m 1.820333,-2.50184 c 1.33884,-0.2895 2.520032,-1.25369 3.142383,-2.56506 0.406728,-0.85703 0.540617,-1.47174 0.540617,-2.48207 0,-1.53688 -0.447574,-2.68356 -1.429196,-3.6616 -0.919668,-0.91631 -1.991089,-1.34653 -3.357849,-1.34833 -1.394617,-0.002 -2.511955,0.44036 -3.43479,1.35933 -0.953114,0.94913 -1.431186,2.16416 -1.428913,3.63162 0.0024,1.56615 0.47635,2.78333 1.471942,3.78042 1.22432,1.22616 2.751452,1.66289 4.495806,1.28569 z m 23.726311,2.47242 c -1.21459,-0.15004 -2.40114,-0.67613 -3.20687,-1.42187 -0.63912,-0.59152 -1.06307,-1.24609 -1.37969,-2.13021 l -0.25908,-0.7234 -0.0223,-4.86834 c -0.0175,-3.81998 9.5e-4,-4.91391 0.0858,-5.08 0.18773,-0.36727 0.6139,-0.52336 1.31931,-0.48321 0.53407,0.0304 0.65236,0.0669 0.84667,0.26112 l 0.22586,0.22577 0.0441,4.84533 c 0.0495,5.44063 0.031,5.27822 0.68642,6.02285 0.66452,0.75493 1.79763,1.10285 3.15051,0.96734 1.00855,-0.10101 1.93736,-0.7125 2.33262,-1.5357 0.30694,-0.63926 0.34675,-1.30853 0.34741,-5.84031 7.1e-4,-4.83276 -0.0145,-4.69145 0.52686,-4.88019 0.3712,-0.1294 1.1209,-0.11258 1.46922,0.033 0.56458,0.23589 0.55851,0.17275 0.524,5.45239 -0.027,4.1308 -0.0486,4.77318 -0.17572,5.21865 -0.68143,2.38844 -2.56093,3.81607 -5.22238,3.96683 -0.39582,0.0224 -0.97753,0.009 -1.2927,-0.03 z m -47.447476,-0.29257 c -0.336819,-0.14652 -0.451166,-0.35695 -0.451166,-0.83028 0,-0.91227 1.027964,-12.89139 1.123531,-13.09278 0.158739,-0.33451 0.605499,-0.5159 1.271021,-0.51606 0.611667,-1.4e-4 1.032217,0.13037 1.257844,0.39035 0.138676,0.15979 3.347997,7.57688 3.542797,8.18779 l 0.103081,0.32327 0.404471,-1.0006 c 1.156482,-2.86097 3.231966,-7.5288 3.405915,-7.66001 0.236456,-0.17836 0.543247,-0.24093 1.181308,-0.24093 0.659632,0 1.051587,0.16954 1.212536,0.52449 0.172678,0.38081 1.197782,13.0136 1.091053,13.44551 -0.09747,0.39445 -0.489728,0.59241 -1.173892,0.59241 -0.671349,0 -1.069193,-0.19723 -1.195018,-0.59241 -0.05189,-0.16298 -0.240548,-2.21086 -0.419232,-4.55083 -0.178684,-2.33998 -0.355301,-4.2545 -0.392481,-4.2545 -0.03718,0 -0.0676,0.0392 -0.0676,0.087 0,0.0767 -2.146908,4.94028 -2.671594,6.05222 -0.274859,0.58249 -0.533605,0.71887 -1.363136,0.71847 -1.073944,-5.1e-4 -1.00851,0.0789 -2.275499,-2.76245 -0.599444,-1.34433 -1.265385,-2.84795 -1.47987,-3.34139 l -0.389973,-0.89717 -0.342749,4.41258 c -0.372614,4.79707 -0.38369,4.86006 -0.88524,5.0349 -0.367634,0.12816 -1.15973,0.1124 -1.486105,-0.0296 z m 31.919336,0 c -0.14767,-0.0642 -0.3096,-0.1936 -0.35983,-0.28746 -0.0631,-0.11796 -0.0913,-2.24677 -0.0913,-6.89486 v -6.7242 l 0.20247,-0.21847 c 0.11135,-0.12016 0.34334,-0.2449 0.51553,-0.2772 0.17218,-0.0323 1.48125,-0.0388 2.90903,-0.0144 2.00772,0.0343 2.70661,0.075 3.08422,0.17947 1.48267,0.41019 2.51897,1.44503 2.89577,2.89167 0.1592,0.61122 0.16685,1.88123 0.0148,2.45226 -0.2913,1.09374 -0.86086,1.9357 -1.65872,2.45204 -0.28182,0.18238 -0.51241,0.3447 -0.51241,0.36071 0,0.016 0.0543,0.11348 0.12068,0.21662 0.41674,0.6476 2.6944,4.97561 2.73088,5.18922 0.0337,0.19754 -0.007,0.3201 -0.16849,0.508 -0.20141,0.23421 -0.25354,0.24903 -0.96118,0.27341 -1.20338,0.0414 -1.0975,0.1536 -2.75045,-2.91356 l -1.40957,-2.61555 -1.2786,-0.0234 -1.2786,-0.0234 v 2.50544 c 0,1.63281 -0.0319,2.56497 -0.0915,2.67637 -0.20291,0.37914 -1.3168,0.54638 -1.91269,0.28718 z m 5.63597,-7.97368 c 0.79619,-0.39676 1.17523,-1.19463 1.08739,-2.28892 -0.063,-0.78539 -0.37196,-1.26228 -1.03087,-1.59141 -0.49374,-0.24663 -0.53103,-0.2517 -2.0955,-0.28535 l -1.59282,-0.0343 v 2.21152 2.21152 h 1.59204 c 1.55023,0 1.6038,-0.006 2.03976,-0.2231 z m 20.1172,7.89243 c -0.89574,-0.39982 -1.11633,-1.53227 -0.4318,-2.2168 0.67275,-0.67275 1.7446,-0.49823 2.16623,0.3527 0.22126,0.44654 0.214,0.84416 -0.0231,1.26271 -0.34349,0.60648 -1.10246,0.87319 -1.71138,0.60139 z m 4.52235,-2.83958 c -0.64907,-0.1967 -1.05218,-0.79129 -0.98816,-1.45753 0.0668,-0.69529 0.53714,-1.16797 1.22824,-1.23438 1.04131,-0.10006 1.81214,0.92367 1.39599,1.85399 -0.19795,0.44252 -0.40882,0.6424 -0.83998,0.79617 -0.36465,0.13005 -0.48406,0.13631 -0.79609,0.0418 z m 4.01809,-3.09355 c -0.78774,-0.47221 -0.86767,-1.6712 -0.14908,-2.23644 0.33645,-0.26465 0.81657,-0.36994 1.20725,-0.26474 0.66185,0.17822 1.02705,0.64786 1.02705,1.32075 0,1.10092 -1.14064,1.74663 -2.08522,1.18043 z m -4.23082,-2.82886 c -0.52713,-0.2394 -0.75362,-0.61526 -0.75362,-1.25063 0,-0.39614 0.0423,-0.57966 0.17456,-0.75677 0.2854,-0.38225 0.59217,-0.56185 1.03187,-0.6041 0.94513,-0.0908 1.70422,0.75558 1.50227,1.67506 -0.0827,0.37667 -0.58661,0.90718 -0.9602,1.01095 -0.42944,0.11928 -0.59557,0.10684 -0.99488,-0.0745 z m -4.41897,-2.94321 c -0.5668,-0.27935 -0.88136,-0.96345 -0.70842,-1.54067 0.19663,-0.65631 0.68344,-1.04198 1.31404,-1.04106 0.87339,10e-4 1.46838,0.63299 1.38764,1.47326 -0.0937,0.97527 -1.11319,1.54221 -1.99326,1.10847 z m 8.66949,-0.0507 c -0.87866,-0.50374 -0.86952,-1.85728 0.016,-2.37447 0.65047,-0.37989 1.59916,-0.0927 1.91878,0.58082 0.18904,0.39838 0.14607,1.09961 -0.0867,1.41421 -0.41516,0.56122 -1.23683,0.72991 -1.84816,0.37944 z"
       id="path1-8" /><g
       id="g41"
       transform="translate(-0.03191,27.33006)"><path
         style="fill:#f6a400;fill-opacity:1"
         d="m 137.94811,236.47478 c -0.87866,-0.50374 -0.86952,-1.85728 0.016,-2.37447 0.65047,-0.37989 1.59916,-0.0927 1.91878,0.58082 0.18904,0.39838 0.14607,1.09961 -0.0867,1.41421 -0.41516,0.56122 -1.23683,0.72991 -1.84816,0.37944 z"
         id="path41" /><path
         style="fill:#cbd000;fill-opacity:1"
         d="m 129.27862,236.52548 c -0.5668,-0.27935 -0.88136,-0.96345 -0.70842,-1.54067 0.19663,-0.65631 0.68344,-1.04198 1.31404,-1.04106 0.87339,0.001 1.46838,0.63299 1.38764,1.47326 -0.0937,0.97527 -1.11319,1.54221 -1.99326,1.10847 z"
         id="path40" /><path
         style="fill:#005ca9;fill-opacity:1"
         d="m 133.69759,239.46869 c -0.52713,-0.2394 -0.75362,-0.61526 -0.75362,-1.25063 0,-0.39614 0.0423,-0.57966 0.17456,-0.75677 0.2854,-0.38225 0.59217,-0.56185 1.03187,-0.6041 0.94513,-0.0908 1.70422,0.75558 1.50227,1.67506 -0.0827,0.37667 -0.58661,0.90718 -0.9602,1.01095 -0.42944,0.11928 -0.59557,0.10684 -0.99488,-0.0745 z"
         id="path39" /><path
         style="fill:#68b447;fill-opacity:1"
         d="m 137.92841,242.29755 c -0.78774,-0.47221 -0.86767,-1.6712 -0.14908,-2.23644 0.33645,-0.26465 0.81657,-0.36994 1.20725,-0.26474 0.66185,0.17822 1.02705,0.64786 1.02705,1.32075 0,1.10092 -1.14064,1.74663 -2.08522,1.18043 z"
         id="path38" /><path
         style="fill:#5fc0c7;fill-opacity:1"
         d="m 133.91032,245.3911 c -0.64907,-0.1967 -1.05218,-0.79129 -0.98816,-1.45753 0.0668,-0.69529 0.53714,-1.16797 1.22824,-1.23438 1.04131,-0.10006 1.81214,0.92367 1.39599,1.85399 -0.19795,0.44252 -0.40882,0.6424 -0.83998,0.79617 -0.36465,0.13005 -0.48406,0.13631 -0.79609,0.0418 z"
         id="path37" /><path
         style="fill:#f3a6ba;fill-opacity:1"
         d="m 129.38797,248.23068 c -0.89574,-0.39982 -1.11633,-1.53227 -0.4318,-2.2168 0.67275,-0.67275 1.7446,-0.49823 2.16623,0.3527 0.22126,0.44654 0.214,0.84416 -0.0231,1.26271 -0.34349,0.60648 -1.10246,0.87319 -1.71138,0.60139 z"
         id="path36" /></g></g></svg>
