<?xml version="1.0" encoding="UTF-8" standalone="no"?>
<!-- Created with Inkscape (http://www.inkscape.org/) -->

<svg
   version="1.1"
   id="svg18"
   width="110.96867"
   height="111.74559"
   viewBox="0 0 110.96866 111.74559"
   sodipodi:docname="UoE_Centred Logo_2 colour_v1_160215.eps"
   xmlns:inkscape="http://www.inkscape.org/namespaces/inkscape"
   xmlns:sodipodi="http://sodipodi.sourceforge.net/DTD/sodipodi-0.dtd"
   xmlns="http://www.w3.org/2000/svg"
   xmlns:svg="http://www.w3.org/2000/svg">
  <defs
     id="defs22" />
  <sodipodi:namedview
     id="namedview20"
     pagecolor="#ffffff"
     bordercolor="#666666"
     borderopacity="1.0"
     inkscape:showpageshadow="2"
     inkscape:pageopacity="0.0"
     inkscape:pagecheckerboard="0"
     inkscape:deskcolor="#d1d1d1"
     showgrid="false" />
  <g
     id="g26"
     inkscape:groupmode="layer"
     inkscape:label="Page 1"
     transform="matrix(1.3333333,0,0,-1.3333333,-72.380665,204.37733)">
    <g
       id="g28"
       transform="scale(0.1)">
      <path
         d="m 601.754,1198.35 c 7.324,-1.62 9.648,-0.7 10.812,4.5 l 1.809,-0.4 -4.816,-21.56 -1.813,0.41 c 0.981,4.36 0.274,7.18 -8.125,9.06 l -46.402,10.39 -1.977,-8.82 c -1.832,-8.19 -0.324,-12.42 5.926,-14.38 l -0.402,-1.81 -13.911,3.12 0.403,1.81 c 0.933,0.68 1.676,1.51 2.433,2.9 0.622,1.32 1.262,3.19 1.844,5.73 l 7.121,31.86 c 1.188,5.32 1.098,7.89 -0.066,10.16 l 0.422,1.91 13.918,-3.1 -0.262,-1.17 c -5.355,-0.03 -9.422,-1.24 -11.586,-10.92 l -2.07,-9.23 46.742,-10.46"
         style="fill:#15213a;fill-opacity:1;fill-rule:nonzero;stroke:none"
         id="path30" />
      <path
         d="m 605.031,1267.57 16.235,-7.92 c 6.754,-3.29 9.722,-2.67 12.062,2.12 l 1.656,-0.81 -9.879,-20.26 -1.664,0.82 c 2.11,4.3 1.633,7.07 -5.8,10.7 l -34.922,17.04 c -6.645,3.24 -9.563,2.97 -11.996,-2.03 l -1.664,0.82 9.882,20.25 1.657,-0.82 c -2.145,-4.39 -1.395,-7.31 5.75,-10.79 l 15.945,-7.78 14.887,30.52 -15.942,7.77 c -6.843,3.35 -9.617,2.88 -11.957,-1.91 l -1.664,0.81 9.785,20.05 1.664,-0.81 c -2.339,-4.79 -0.851,-7.45 5.801,-10.7 l 34.922,-17.03 c 6.649,-3.25 9.664,-2.78 12.004,2.01 l 1.66,-0.81 -9.789,-20.05 -1.66,0.81 c 2.148,4.39 1.594,6.97 -5.852,10.59 l -16.226,7.94 -14.895,-30.53"
         style="fill:#15213a;fill-opacity:1;fill-rule:nonzero;stroke:none"
         id="path32" />
      <path
         d="m 678.758,1370.1 -1.184,-1.42 c -4.933,2.41 -6.066,2.08 -10.176,-2.86 l -9.886,-11.87 17.136,-14.28 c 2.352,-1.96 3.961,-1.89 6.192,0.79 l 6.973,8.36 c 5.843,7.03 6.964,9.06 3.07,17.13 l 1.187,1.42 7.133,-9.63 -28.765,-34.53 -1.422,1.19 c 3.129,3.75 3.351,6.4 -3.004,11.69 l -29.93,24.94 c -5.945,4.95 -8.73,5.01 -12.137,0.91 l -1.429,1.18 28.769,34.54 8.028,-6.68 -0.77,-0.93 c -6.164,3.3 -7.98,1.98 -12.367,-3.29 l -11.504,-13.79 20.5,-17.07 11.144,13.38 c 2.707,3.26 3.172,5 -0.371,9.08 l 1.192,1.43 11.621,-9.69"
         style="fill:#15213a;fill-opacity:1;fill-rule:nonzero;stroke:none"
         id="path34" />
      <path
         d="m 795.578,1440.36 c -1.797,-9 -5.883,-15.05 -13.09,-19.11 -13.179,-7.42 -23.718,-1.12 -29.004,8.27 l -15.074,26.73 c -4.055,7.21 -6.758,7.57 -11.019,5.16 l -0.903,1.62 19.621,11.06 0.907,-1.62 c -4.453,-2.51 -5.352,-5.13 -1.45,-12.06 l 15.493,-27.5 c 4.707,-8.34 12.714,-11.7 21.91,-6.52 6.261,3.53 9.992,9.75 10.48,17.76 l -18.429,32.73 c -3.528,6.25 -6.184,7.63 -10.645,5.37 l -0.91,1.6 19.148,10.8 0.907,-1.61 c -4.551,-2.57 -4.981,-5.56 -1.297,-12.11 l 19.066,-33.85 c 4.012,-7.12 6.848,-7.5 11.027,-5.15 l 0.903,-1.62 -13.364,-7.52 -4.277,7.57"
         style="fill:#15213a;fill-opacity:1;fill-rule:nonzero;stroke:none"
         id="path36" />
      <path
         d="m 894.461,1465.03 -1.801,-0.47 -56.035,41.6 -0.211,-0.05 10.859,-42.38 c 1.563,-6.12 4.551,-7.71 10.036,-6.31 l 0.457,-1.79 -18.332,-4.7 -0.469,1.8 c 5.062,1.29 7.082,3.49 4.84,12.24 l -9.047,35.33 c -1.731,6.74 -4.488,10.08 -11.824,8.87 l -0.457,1.79 15.503,3.97 49.782,-37.35 0.207,0.06 -9.043,35.31 c -2.024,7.91 -4.649,9.37 -9.91,8.02 l -0.469,1.79 18.242,4.67 0.457,-1.79 c -5.906,-1.51 -7.183,-4.43 -5.371,-11.48 l 12.586,-49.13"
         style="fill:#15213a;fill-opacity:1;fill-rule:nonzero;stroke:none"
         id="path38" />
      <path
         d="m 945.305,1481.65 c 0.375,-7.61 2.34,-9.79 7.554,-9.53 l 0.086,-1.85 -22.386,-1.13 -0.094,1.86 c 5.109,0.25 6.965,2.31 6.574,10.24 l -1.93,38.81 c -0.382,7.82 -2.23,9.8 -7.554,9.54 l -0.098,1.84 22.398,1.12 0.086,-1.85 c -5.218,-0.25 -6.945,-2.74 -6.57,-10.24 l 1.934,-38.81"
         style="fill:#15213a;fill-opacity:1;fill-rule:nonzero;stroke:none"
         id="path40" />
      <path
         d="m 1008.3,1466.02 -1.72,0.22 -12.424,52.71 c -1.914,7.94 -3.035,11.05 -8.836,12.05 l 0.246,1.83 22.444,-2.98 -0.25,-1.84 c -4.42,0.59 -6.89,-1.49 -5.7,-6.6 l 9.8,-41.92 19.46,36.6 c 2.64,5.03 2.12,8.5 -3.49,9.26 l 0.25,1.83 18.01,-2.4 -0.26,-1.94 c -4.64,0.62 -8.56,-2.49 -12.82,-10.48 l -24.71,-46.34"
         style="fill:#15213a;fill-opacity:1;fill-rule:nonzero;stroke:none"
         id="path42" />
      <path
         d="m 1106.66,1464.81 -1.74,0.64 c 0.61,5.45 -0.09,6.41 -6.11,8.61 l -14.51,5.31 -7.67,-20.95 c -1.05,-2.86 -0.45,-4.36 2.83,-5.56 l 10.23,-3.75 c 8.58,-3.13 10.88,-3.51 17.16,2.89 l 1.73,-0.64 -6.65,-9.96 -42.22,15.44 0.64,1.73 c 4.6,-1.67 7.16,-0.99 10,6.78 l 13.4,36.58 c 2.65,7.27 1.76,9.91 -3.25,11.74 l 0.63,1.74 42.22,-15.45 -3.59,-9.8 -1.13,0.41 c 1.03,6.91 -0.83,8.18 -7.26,10.53 l -16.87,6.17 -9.16,-25.04 16.36,-5.98 c 3.98,-1.46 5.77,-1.3 8.42,3.4 l 1.74,-0.63 -5.2,-14.21"
         style="fill:#15213a;fill-opacity:1;fill-rule:nonzero;stroke:none"
         id="path44" />
      <path
         d="m 1160.38,1443.02 4.18,-2.76 c 9.54,-6.28 4.19,-20.35 6.12,-38.56 l 10.64,-7.02 1.01,1.55 c -8.2,6.33 -0.17,25.65 -5.75,38.33 9.13,-2.75 15.38,0.03 19.14,5.75 4.56,6.9 3.36,17.35 -8.36,25.07 l -21.36,14.08 -1,-1.55 c 4.17,-2.76 5.07,-5.17 0.56,-11.98 l -21.48,-32.62 c -4.62,-7.01 -7.36,-7.02 -11.36,-4.38 l -1.01,-1.55 18.72,-12.34 1.02,1.55 c -4.27,2.81 -4.65,5.8 -0.46,12.17 z m 17.12,25.99 5.45,-3.58 c 7.99,-5.29 9.93,-13.61 5.39,-20.51 -3.94,-5.99 -11.34,-9.72 -20.15,-3.91 l -6.38,4.19 15.69,23.81"
         style="fill:#15213a;fill-opacity:1;fill-rule:nonzero;stroke:none"
         id="path46" />
      <path
         d="m 1259.71,1386.5 -1.31,1.32 c 5.91,7.18 3.89,14.36 -0.54,18.86 -4.58,4.65 -10.43,5.46 -14.54,1.42 -8.21,-8.09 0.76,-21.56 0.67,-34.17 -0.05,-6.16 -2.08,-9.69 -5.03,-12.59 -6.98,-6.88 -18.21,-6.79 -25.09,0.19 -4.65,4.74 -6.22,10.98 -7.67,12.45 -0.76,0.77 -1.85,0.79 -3.39,0.03 l -1.3,1.33 12.03,11.82 1.28,-1.32 c -8.13,-8.17 -4.21,-17.58 -0.39,-21.46 5.28,-5.35 11.88,-5.87 16.7,-1.14 7.67,7.56 -0.51,23.02 -0.44,32.87 0.04,5.39 2.07,9.53 5.56,12.97 6.83,6.71 16.29,6.4 23.39,-0.8 4.66,-4.73 5.17,-8.66 6.85,-10.37 0.69,-0.69 1,-0.7 2.39,0.06 l 1.21,-1.24 -10.38,-10.23"
         style="fill:#15213a;fill-opacity:1;fill-rule:nonzero;stroke:none"
         id="path48" />
      <path
         d="m 1264.99,1319.79 c -6.26,-4.34 -7.08,-7.16 -4.11,-11.47 l -1.51,-1.04 -12.78,18.42 1.53,1.05 c 2.9,-4.2 5.63,-4.69 12.16,-0.17 l 31.94,22.13 c 6.44,4.47 7.14,7.07 4.11,11.47 l 1.51,1.04 12.78,-18.42 -1.52,-1.06 c -2.97,4.29 -6,4.45 -12.18,0.17 l -31.93,-22.12"
         style="fill:#15213a;fill-opacity:1;fill-rule:nonzero;stroke:none"
         id="path50" />
      <path
         d="m 1296.04,1263.2 c -6.83,-3.13 -8.11,-5.27 -5.9,-10.12 l -1.67,-0.77 -9.2,20.08 1.68,0.77 c 1.86,-4.06 4.13,-5.89 11.95,-2.3 l 43.23,19.8 -3.76,8.22 c -3.5,7.63 -7.26,10.08 -13.42,7.86 l -0.78,1.68 12.97,5.94 0.77,-1.68 c -0.33,-1.11 -0.42,-2.22 -0.18,-3.79 0.3,-1.43 0.92,-3.29 2,-5.67 l 13.61,-29.68 c 2.26,-4.95 3.9,-6.95 6.2,-8.05 l 0.82,-1.78 -12.97,-5.95 -0.5,1.1 c 4.25,3.26 6.75,6.69 2.63,15.69 l -3.95,8.6 -43.53,-19.95"
         style="fill:#15213a;fill-opacity:1;fill-rule:nonzero;stroke:none"
         id="path52" />
      <path
         d="m 1320.62,1187.4 c -7.33,-1.58 -9.37,-3.58 -8.25,-8.78 l -1.8,-0.4 -4.76,22.24 1.8,0.4 c 1.01,-4.69 2.55,-7.25 11.28,-5.39 l 19.16,4.11 17.44,17.31 c 5.8,5.7 6.79,7.8 5.98,12.64 l 1.81,0.38 5.1,-23.84 -1.81,-0.39 c -1.44,6.72 -3.95,6.96 -7.14,3.71 l -15.94,-15.98 17.4,-6.41 c 5.42,-1.96 9.94,-1.21 8.85,3.9 l 1.81,0.39 3.57,-16.71 -1.81,-0.4 c -1.32,4.62 -2.93,5.95 -8.99,8.22 l -24.54,9.09 -19.16,-4.09"
         style="fill:#15213a;fill-opacity:1;fill-rule:nonzero;stroke:none"
         id="path54" />
      <path
         d="m 578.414,1038.45 c -17.789,-5.12 -27.66,-23.13 -22.512,-41.02 5.137,-17.883 23.11,-28 40.899,-22.879 17.465,5.023 27.129,22.972 22.019,40.759 -5.273,18.3 -22.629,28.26 -40.406,23.14 z m 2.547,-9.24 c 17.359,4.99 31.551,-0.65 35.621,-14.78 3.543,-12.32 -4.129,-25.41 -22.961,-30.84 -14.527,-4.176 -31.125,-0.465 -35.445,14.609 -3.887,13.491 5.312,26.001 22.785,31.011"
         style="fill:#15213a;fill-opacity:1;fill-rule:nonzero;stroke:none"
         id="path56" />
      <path
         d="m 603.258,917.391 c -6.621,-3.77 -7.684,-6.508 -5.094,-11.051 l -1.605,-0.938 -11.125,19.493 1.617,0.918 c 2.59,-4.543 5.394,-5.075 12.113,-1.227 l 33.734,19.238 c 6.813,3.887 7.696,6.512 5.106,11.055 l 1.598,0.934 21.203,-37.168 -9.645,-5.489 -0.695,1.215 c 5.855,5.106 5.328,6.926 1.969,12.801 l -7.875,13.801 -22.684,-12.953 8.039,-14.09 c 2.316,-4.063 5.266,-4.379 9.879,-2.383 l 0.867,-1.496 -15.222,-8.699 -0.86,1.503 c 3.77,2.415 4.957,5.586 2.793,9.375 l -8.144,14.274 -15.969,-9.113"
         style="fill:#15213a;fill-opacity:1;fill-rule:nonzero;stroke:none"
         id="path58" />
      <path
         d="m 722.848,797.148 -1.438,1.168 c 2.379,4.957 2.031,6.086 -2.933,10.137 l -11.946,9.824 -14.152,-17.254 c -1.934,-2.359 -1.848,-3.98 0.848,-6.187 l 8.41,-6.898 c 7.07,-5.797 9.117,-6.922 17.148,-2.942 l 1.438,-1.168 -9.571,-7.223 -34.757,28.52 1.168,1.418 c 3.792,-3.105 6.433,-3.301 11.679,3.094 l 24.707,30.129 c 4.899,5.968 4.946,8.746 0.817,12.132 l 1.168,1.426 34.761,-28.496 -6.625,-8.074 -0.925,0.742 c 3.253,6.211 1.91,8.008 -3.387,12.356 l -13.887,11.398 -16.906,-20.617 13.457,-11.055 c 3.289,-2.68 5.027,-3.125 9.086,0.445 l 1.433,-1.187 -9.593,-11.688"
         style="fill:#15213a;fill-opacity:1;fill-rule:nonzero;stroke:none"
         id="path60" />
      <path
         d="m 766.207,754.82 c -3.23,-7.039 -6.019,-8.14 -10.574,-6.054 l -0.766,-1.68 26.887,-12.395 c 22.238,-10.242 37.293,-1.234 43.848,12.993 6.789,14.726 3.203,33.996 -18.434,43.988 l -26.195,12.043 -0.785,-1.668 c 4.757,-2.188 5.429,-5.141 2.281,-11.949 z m 27.695,40.305 10.774,-4.969 c 17.887,-8.226 18.422,-25.015 12.179,-38.566 -7.097,-15.422 -19.972,-21.219 -34,-14.766 l -5.835,2.68 c -5.239,2.422 -6.438,5.016 -2.387,13.82 l 19.269,41.801"
         style="fill:#15213a;fill-opacity:1;fill-rule:nonzero;stroke:none"
         id="path62" />
      <path
         d="m 875.93,715.473 c -1.641,-7.446 -0.328,-10.098 4.773,-11.207 l -0.394,-1.801 -21.899,4.82 0.403,1.805 c 4.992,-1.094 7.328,0.383 9.039,8.156 l 8.363,37.93 c 1.676,7.648 0.418,10.051 -4.789,11.187 l 0.398,1.825 21.891,-4.833 -0.391,-1.8 c -5.109,1.125 -7.422,-0.813 -9.039,-8.153 l -8.355,-37.929"
         style="fill:#15213a;fill-opacity:1;fill-rule:nonzero;stroke:none"
         id="path64" />
      <path
         d="m 988.703,695.355 -1.844,-0.031 -44.558,53.739 -0.223,-0.028 0.485,-43.746 c 0.066,-6.309 2.593,-8.555 8.253,-8.496 l 0.024,-1.863 -18.934,-0.192 -0.027,1.832 c 5.219,0.059 7.711,1.715 7.609,10.762 l -0.398,36.445 c -0.074,6.973 -1.969,10.86 -9.387,11.438 l -0.012,1.851 16,0.184 39.493,-48.113 0.218,0.008 -0.406,36.457 c -0.09,8.168 -2.293,10.191 -7.73,10.136 l -0.016,1.86 18.832,0.211 0.016,-1.852 c -6.098,-0.086 -8.032,-2.594 -7.95,-9.883 l 0.555,-50.719"
         style="fill:#15213a;fill-opacity:1;fill-rule:nonzero;stroke:none"
         id="path66" />
      <path
         d="m 1054.59,737.75 5.68,1.563 c 10.59,2.902 18.95,-1.215 21.37,-10.051 2.43,-8.805 -2.22,-14.485 -8.3,-16.141 l -4.93,-1.383 c -4.72,-1.293 -6.74,0.313 -8.97,8.391 z m -2.84,-20.859 c 2.03,-7.36 0.85,-10.051 -4.19,-11.43 l 0.49,-1.805 27.7,7.641 c 11.33,3.105 17.75,10.976 15.27,19.992 -2.23,8.082 -10.42,13.289 -20.18,12.625 l -0.05,0.223 c 7.53,5.004 10.13,10.328 8.32,16.961 -2.11,7.648 -10.45,12.933 -24.93,8.922 l -22.67,-6.219 0.49,-1.778 c 5.04,1.372 7.35,-0.027 9.45,-7.695 z m 2.2,23.156 -7.01,25.516 5.98,1.64 c 9.76,2.684 15.86,-1.387 17.94,-8.949 2.07,-7.563 -1.9,-14.07 -10.71,-16.481 l -6.2,-1.726"
         style="fill:#15213a;fill-opacity:1;fill-rule:nonzero;stroke:none"
         id="path68" />
      <path
         d="m 1180.77,767.918 c -1.66,-9.027 -5.66,-15.152 -12.79,-19.301 -13.07,-7.637 -23.71,-1.492 -29.14,7.805 l -15.49,26.5 c -4.16,7.137 -6.86,7.445 -11.09,4.988 l -0.94,1.59 19.46,11.359 0.93,-1.597 c -4.41,-2.574 -5.27,-5.219 -1.26,-12.074 l 15.91,-27.247 c 4.83,-8.273 12.89,-11.503 22,-6.191 6.21,3.617 9.86,9.914 10.21,17.938 l -18.94,32.421 c -3.61,6.204 -6.28,7.543 -10.71,5.2 l -0.94,1.601 18.97,11.07 0.95,-1.582 c -4.52,-2.652 -4.91,-5.64 -1.12,-12.109 l 19.59,-33.562 c 4.1,-7.059 6.95,-7.418 11.08,-4.989 l 0.94,-1.59 -13.23,-7.753 -4.39,7.523"
         style="fill:#15213a;fill-opacity:1;fill-rule:nonzero;stroke:none"
         id="path70" />
      <path
         d="m 1228.08,830.566 3.52,3.579 c 8.03,8.128 20.79,0.132 39.04,-1.504 l 8.93,9.054 -1.31,1.313 c -7.8,-6.84 -25.2,4.832 -38.73,1.793 4.49,8.437 2.98,15.121 -1.9,19.933 -5.89,5.817 -16.37,6.664 -26.23,-3.328 l -17.95,-18.215 1.31,-1.304 c 3.52,3.558 6.06,3.965 11.87,-1.766 l 27.81,-27.437 c 5.97,-5.891 5.45,-8.575 2.09,-11.989 l 1.31,-1.3 15.75,15.972 -1.32,1.281 c -3.59,-3.625 -6.59,-3.414 -12.01,1.938 z m -22.15,21.872 4.58,4.648 c 6.72,6.82 15.26,7.098 21.16,1.285 5.11,-5.047 7.32,-13.019 -0.08,-20.543 l -5.36,-5.43 -20.3,20.04"
         style="fill:#15213a;fill-opacity:1;fill-rule:nonzero;stroke:none"
         id="path72" />
      <path
         d="m 1330.53,917.391 c -0.97,-3.493 -6.29,-13.258 -7.76,-15.672 -14.27,-23.426 -33.15,-22.625 -45.42,-15.153 -18.87,11.481 -20.75,32.262 -12.76,45.36 4.58,7.531 8.85,8.883 11.34,12.98 1.02,1.668 1.01,2.692 0.04,4.039 l 1.02,1.688 15.71,-9.574 -0.9,-1.489 c -10.99,4.778 -20.76,-1.636 -25.17,-8.89 -6.68,-10.965 -2.15,-25.055 12.45,-33.946 15.62,-9.531 32.81,-7.254 40.5,5.391 2.32,3.828 4.51,9.48 -0.24,12.383 l -5.76,3.5 c -6.5,3.953 -9.74,3.898 -12.39,-0.461 l -1.25,-2.047 -1.58,0.965 13.14,21.555 1.57,-0.954 c -3.17,-5.218 -1.5,-8.14 3.14,-10.957 l 14.32,-8.718"
         style="fill:#15213a;fill-opacity:1;fill-rule:nonzero;stroke:none"
         id="path74" />
      <path
         d="m 1328.78,989.348 17.36,-5.008 c 7.21,-2.082 10.03,-0.953 11.5,4.168 l 1.78,-0.512 -6.24,-21.633 -1.78,0.504 c 1.33,4.59 0.38,7.242 -7.56,9.547 l -37.32,10.754 c -7.12,2.043 -9.94,1.289 -11.49,-4.043 l -1.78,0.512 6.25,21.633 1.78,-0.5 c -1.36,-4.71 -0.11,-7.438 7.52,-9.637 l 17.06,-4.93 9.41,32.617 -17.05,4.93 c -7.33,2.1 -9.97,1.18 -11.45,-3.94 l -1.77,0.51 6.18,21.45 1.78,-0.53 c -1.48,-5.12 0.44,-7.5 7.55,-9.54 l 37.34,-10.78 c 7.11,-2.04 10,-1.08 11.47,4.04 l 1.79,-0.5 -6.2,-21.42 -1.78,0.5 c 1.36,4.71 0.37,7.14 -7.58,9.42 l -17.35,5.03 -9.42,-32.642"
         style="fill:#15213a;fill-opacity:1;fill-rule:nonzero;stroke:none"
         id="path76" />
      <path
         d="m 575.395,1108.13 c -0.012,-3.04 -2.489,-5.49 -5.532,-5.46 -3.023,0 -5.472,2.49 -5.449,5.5 0.02,3.06 2.492,5.49 5.516,5.48 3.035,-0.03 5.48,-2.49 5.465,-5.52"
         style="fill:#15213a;fill-opacity:1;fill-rule:nonzero;stroke:none"
         id="path78" />
      <path
         d="m 1355.06,1108.02 c -0.02,-3.03 -2.5,-5.48 -5.53,-5.45 -3.04,0.01 -5.47,2.48 -5.46,5.52 0.02,3.02 2.49,5.47 5.52,5.46 3.03,-0.03 5.48,-2.5 5.47,-5.53"
         style="fill:#15213a;fill-opacity:1;fill-rule:nonzero;stroke:none"
         id="path80" />
      <path
         d="m 1119.61,825.039 c 4.39,2.285 8.4,5.332 12.63,7.965 3.59,2.164 7.18,4.371 10.77,6.566 3.22,2.403 6.17,5.145 9.49,7.418 3.46,2.52 6.9,5.035 10.36,7.532 0.73,0.687 1.45,1.402 2.16,2.093 0.81,0.426 1.63,0.891 2.42,1.36 2.95,2.238 5.95,4.898 8.69,7.457 2.22,2.043 3.86,4.379 6.19,6.449 2.3,2.094 4.84,3.984 7.2,6.066 0.99,0.91 1.52,1.903 2.4,2.789 1.9,1.852 3.89,3.625 5.61,5.621 1.19,1.485 2.41,2.961 3.63,4.426 4.3,4.129 8.21,8.672 11.81,13.293 2.92,3.481 5.85,7 8.76,10.473 1.93,2.711 3.86,5.449 5.76,8.156 1.01,1.082 2.02,2.164 3.05,3.242 3.12,4.368 6.27,8.746 9.4,13.145 0.92,1.504 1.48,3.047 2.35,4.582 0.7,1.012 1.4,2.035 2.09,2.988 0.61,1.274 1.18,2.559 1.79,3.84 2.13,3.625 4.12,7.262 6.09,10.938 1.65,2.816 3.32,5.628 4.96,8.476 1.38,2.852 2.24,5.871 3.51,8.746 1.45,3.02 2.86,6.039 4.29,9.047 4.82,12.993 9.58,26.003 13.44,39.423 0.29,1.58 0.57,3.21 0.85,4.8 1.05,4.91 2.4,9.96 3.37,14.98 0.3,2.58 0.58,5.17 0.89,7.75 0.7,4.2 1.55,8.72 2.13,12.99 0.27,3.42 0.54,6.89 0.8,10.33 0.26,1.34 0.52,2.69 0.79,4.05 0.15,2.87 0.31,5.75 0.48,8.63 0.16,1.45 0.6,2.8 0.67,4.32 0,2 -0.06,4.03 -0.08,6.04 0.9,13.02 1.13,27.16 0.42,40.05 -0.4,6.72 -1.96,13.34 -2.64,19.9 -0.77,6.95 -1.29,13.83 -2.68,20.44 -3.84,18.2 -8.9,36.06 -15.31,53.05 -0.92,2.45 -2.33,4.7 -3.34,7.09 -2.09,5.06 -4.44,9.75 -6.88,14.56 -0.8,1.39 -1.59,2.75 -2.39,4.14 -2,4.21 -3.38,8.78 -5.6,12.88 -1.38,2.52 -3,4.67 -4.61,7.1 -1.22,2.63 -2.48,5.24 -3.7,7.89 -4.6,7.15 -9.38,14.17 -14.17,21.18 -1.82,2.12 -3.64,4.22 -5.44,6.32 -2.02,2.59 -4.03,5.2 -6.04,7.81 -1.93,1.95 -4.06,3.57 -5.77,5.74 -0.98,1.24 -1.55,2.54 -2.58,3.79 -1.51,1.65 -3.02,3.32 -4.53,4.94 -0.9,0.84 -1.81,1.66 -2.71,2.49 -2.3,2.61 -4.45,5.3 -6.83,7.86 -2.09,1.95 -4.15,3.9 -6.22,5.86 -2.01,2.02 -4,4.04 -6.02,6.08 -2.75,2.14 -5.54,4.28 -8.32,6.4 -2.84,2.52 -5.72,5 -8.58,7.52 -1.89,1.43 -3.94,2.42 -5.87,3.69 -2.43,1.79 -4.91,3.58 -7.38,5.35 -1.85,1.31 -3.43,2.75 -5.2,4.21 -1.34,0.79 -2.66,1.62 -3.99,2.44 -1.78,1.26 -3.56,2.52 -5.36,3.79 -5.88,3.6 -12.18,6.33 -18.29,9.48 -2.22,1.39 -4.45,2.8 -6.65,4.2 -3.86,1.93 -7.69,3.87 -11.52,5.8 -3.14,1.5 -6.41,2.6 -9.63,3.86 -1.57,0.88 -3.16,1.74 -4.72,2.62 -1.22,0.43 -2.45,0.85 -3.67,1.29 -1.92,0.85 -3.85,1.72 -5.78,2.58 -6.04,2.2 -12.38,3.76 -18.64,5.69 -2.94,0.89 -6.02,2.09 -9,2.96 -6.53,1.91 -13.02,2.91 -19.78,4.43 -4.32,0.98 -8.85,2.23 -13.27,2.98 -2.86,0.4 -5.74,0.77 -8.58,1.17 -4.76,0.99 -10.07,1.84 -15.039,2.45 -1.887,0.04 -3.821,0.09 -5.742,0.15 -1.313,0.19 -2.664,0.36 -4.02,0.54 -2.59,0.03 -5.18,0.08 -7.785,0.12 -5.832,0.41 -12.004,0.88 -18.137,0.93 -2.379,-0.7 -5.719,-0.28 -8.363,-0.26 -3.168,0 -6.332,-0.02 -9.5,-0.02 -0.871,-0.14 -1.731,-0.28 -2.602,-0.42 -2.199,-0.05 -4.402,-0.11 -6.613,-0.17 -1.164,-0.27 -2.332,-0.56 -3.504,-0.84 -1.137,-0.15 -2.281,-0.27 -3.43,-0.42 -1.097,0 -2.222,0.1 -3.171,-0.28 -0.653,-0.09 -1.332,-0.18 -1.996,-0.27 -1.422,0 -2.93,0.05 -4.051,-0.54 -3.09,0.01 -7.688,-0.39 -10.082,-1.69 -0.668,-0.08 -1.348,-0.17 -2.012,-0.27 -1.965,0.02 -4.551,-0.23 -6.07,-1.12 -5.082,0.04 -9.289,-2.12 -13.899,-3.22 -2.449,-0.57 -5.367,-0.85 -7.465,-2.12 -2.004,0.01 -4.179,-0.5 -5.765,-1.41 -3.211,0.02 -5.996,-1.85 -8.739,-2.91 -1.621,-0.63 -3.648,-0.66 -5.097,-1.62 -3.211,0.01 -6.047,-1.85 -8.695,-3.04 -1.825,-0.79 -3.665,-1.54 -5.493,-2.32 -9.894,-4.15 -19.554,-8.88 -29.066,-13.83 -1.594,-1.04 -3.211,-2.07 -4.816,-3.08 -11.395,-5.76 -22.649,-12.1 -32.727,-20.3 -2.977,-2.13 -5.949,-4.26 -8.918,-6.38 -1.551,-1.39 -3.121,-2.8 -4.668,-4.19 -2.895,-2.14 -5.922,-3.95 -8.727,-6.3 -5.722,-4.86 -11.121,-10.28 -16.433,-15.54 -3.254,-2.96 -6.539,-5.93 -9.813,-8.89 -1.125,-1.28 -2.242,-2.57 -3.339,-3.87 -1.493,-1.38 -2.993,-2.76 -4.469,-4.14 -2.352,-2.4 -3.992,-5.28 -6.262,-7.62 -1.973,-2 -3.941,-3.87 -5.719,-6.08 -0.8,-1.11 -1.644,-2.22 -2.445,-3.32 -3.449,-3.86 -6.801,-7.67 -9.77,-11.84 -2.039,-3.17 -4.07,-6.34 -6.105,-9.53 -2.938,-3.77 -6.242,-8.64 -8.5,-12.78 -0.68,-1.35 -1.348,-2.69 -2.012,-4.05 -1.972,-3.3 -3.953,-6.58 -5.937,-9.84 -1.715,-3.43 -2.875,-7.09 -4.594,-10.53 -0.805,-1.33 -1.598,-2.66 -2.387,-3.99 -1.672,-3.09 -3.082,-6.19 -4.867,-9.25 -0.805,-1.98 -1.625,-3.97 -2.437,-5.97 -0.993,-2.04 -1.965,-4.09 -2.95,-6.14 -0.789,-2.35 -1.601,-4.7 -2.394,-7.05 -0.969,-2.53 -1.938,-5.06 -2.918,-7.59 -4.879,-15.78 -8.973,-31.62 -12.324,-48.32 -0.285,-3.16 -0.567,-6.3 -0.844,-9.46 -0.438,-3.64 -1.688,-7.61 -1.992,-11.24 -0.246,-2.81 -0.133,-6.01 -0.926,-8.63 -0.207,-2.22 -0.406,-4.43 -0.613,-6.61 -0.496,-13.54 -0.133,-26.4 0.215,-39.48 0.175,-6.29 1.41,-12.58 1.96,-18.75 0.145,-2.68 0.27,-5.35 0.407,-8.05 0.855,-8.43 2.293,-16.98 3.605,-25.35 0.617,-2.13 1.195,-4.26 1.789,-6.4 1.41,-6.61 2.891,-13 4.805,-19.35 0.555,-1.43 1.117,-2.87 1.672,-4.32 0.351,-1.51 0.73,-3.02 1.082,-4.53 2.492,-7.01 4.984,-14.033 7.461,-21.013 1.242,-2.637 2.476,-5.297 3.695,-7.93 0.707,-1.734 1.078,-3.691 1.828,-5.41 1.899,-4.484 4.68,-8.508 6.949,-12.828 1.789,-3.52 3.918,-6.887 5.696,-10.414 0.508,-1.266 1.035,-2.535 1.547,-3.809 0.617,-0.781 1.234,-1.508 1.851,-2.277 0.68,-1.477 1.356,-2.941 2.039,-4.426 1.672,-2.941 3.707,-5.789 5.84,-8.496 1.262,-1.613 2.309,-3.434 3.598,-5.055 1.726,-2.179 3.672,-4.175 5.297,-6.414 1.25,-1.859 2.496,-3.691 3.757,-5.535 2.356,-2.816 4.707,-5.64 7.082,-8.418 1.954,-2.469 3.907,-4.949 5.848,-7.418 2.449,-2.554 4.883,-5.101 7.324,-7.648 2,-2.324 3.731,-5.071 6.039,-7.192 3.297,-3.019 6.532,-6.097 9.575,-9.164 1.629,-1.64 3.25,-3.289 4.859,-4.91 2.668,-2.324 5.781,-3.98 8.344,-6.41 2.468,-2.402 4.957,-4.797 7.465,-7.195 1.808,-1.391 3.609,-2.778 5.41,-4.157 2.226,-1.91 4.121,-4.109 6.535,-5.816 2.894,-1.969 5.601,-4.262 8.625,-6.008 2,-1.16 4.137,-1.758 6.062,-3.039 2.239,-1.582 4.485,-3.16 6.727,-4.742 2.195,-1.438 4.711,-2.578 6.961,-3.957 8.492,-5.207 17.07,-9.691 26,-13.965 3.926,-1.898 7.633,-4.309 11.836,-5.738 3.855,-1.504 7.695,-2.996 11.547,-4.473 1.402,-0.387 2.82,-0.82 4.215,-1.207 3.785,-1.445 7.546,-2.894 11.324,-4.359 1.011,-0.297 2.023,-0.606 3.051,-0.907 3.253,-1.273 6.492,-2.765 9.894,-3.703 4.109,-0.808 8.211,-1.582 12.32,-2.39 6.114,-1.274 12.512,-3.172 18.754,-4.129 2.285,-0.192 4.563,-0.395 6.879,-0.547 3.024,-0.387 6.067,-1.109 9.223,-1.391 2.39,-0.136 4.769,-0.308 7.16,-0.465 1.563,-0.23 3.109,-0.472 4.645,-0.722 1.628,-0.059 3.257,-0.113 4.886,-0.164 3.758,-0.547 7.481,-1.129 11.227,-1.688 1.914,-0.093 3.847,-0.172 5.758,-0.25 1.156,0.133 2.32,0.27 3.476,0.387 3.426,-0.02 7.504,-0.387 10.934,-0.551 2.191,-0.047 4.242,0.106 6.336,0 4.308,-0.222 8.414,0.625 12.414,1.215 1.808,0.078 3.637,0.137 5.441,0.191 2.457,0.301 5.09,0.727 7.512,0.918 8.921,0.821 17.561,1.825 26.201,3.52 2.89,0.773 5.8,1.523 8.7,2.297 3.64,0.722 7.27,1.492 10.89,2.226 1.9,0.539 3.57,1.485 5.36,2.2 2.96,0.879 5.91,1.746 8.87,2.632 1.27,0.461 2.53,0.887 3.79,1.348 2.15,0.582 4.09,0.813 6.22,1.469 4.36,1.504 8.71,3.055 13.1,4.582 2.58,1.262 5.18,2.457 7.77,3.691 2.54,0.977 5.06,2.121 7.48,3.25 0.7,0.414 1.37,0.86 2.07,1.274 2.62,1.234 5.34,2.468 7.9,3.789 2.96,1.699 5.93,3.355 8.9,5.062 1.52,0.774 3.21,1.219 4.73,2.008"
         style="fill:#15213a;fill-opacity:1;fill-rule:nonzero;stroke:none"
         id="path82" />
      <path
         d="m 956.293,811.633 c -0.102,0 -0.195,0 -0.293,0 0,0.105 0,0.195 0,0.301 -0.445,0 -0.66,0.55 -0.906,0.855 -1.114,1.777 -2.235,3.551 -3.348,5.324 -2.328,2.711 -4.672,5.45 -7.004,8.2 -6.992,6.644 -15.176,12.335 -23.762,16.046 -1.769,0.637 -3.554,1.301 -5.328,1.942 -1.976,0.855 -3.789,1.996 -5.843,2.746 -1.918,0.715 -3.973,0.945 -6.024,1.32 -2.066,0.399 -4.191,0.977 -6.324,1.449 -4.398,0.887 -8.824,2.207 -13.281,3.008 -4.321,0.539 -8.617,1.063 -12.938,1.629 -3.441,0.176 -6.738,0.117 -10.062,0.426 -15.602,1.582 -31.035,3.094 -46.11,5.523 -5.136,0.871 -10.16,0.891 -15.199,1.778 -4.996,0.886 -10.019,2.332 -14.773,3.847 -2.641,0.828 -5.34,1.446 -7.883,2.411 -2.516,1.121 -5.016,2.246 -7.52,3.386 -1.73,0.789 -3.461,1.571 -5.187,2.324 -1.192,0.77 -2.403,1.551 -3.629,2.332 -0.57,0.321 -1.156,0.618 -1.734,0.954 -4.118,3.3 -7.364,7.863 -10.532,11.882 -2.433,3.106 -3.715,6.723 -4.871,10.465 -0.554,1.86 -1.129,3.711 -1.699,5.567 -1.828,8.621 -1.641,17.629 -1.738,27.05 -0.137,1.821 -0.313,3.645 -0.469,5.497 0.25,6.992 0.691,14.097 0.828,21.023 -0.051,1.523 -0.098,3.047 -0.168,4.602 0.039,6.992 0.074,14.003 0.117,21.015 0.028,4.61 0.387,9.153 0.348,13.531 -0.191,18.884 0.144,37.984 0.566,57.044 -0.152,2.68 -0.297,5.37 -0.461,8.08 -0.031,2.97 0.305,5.79 0.309,8.61 -0.047,1.35 -0.086,2.71 -0.113,4.06 0.355,4.3 0.718,8.64 1.066,12.94 0.082,3.36 -0.211,6.65 -0.211,9.79 0.02,2.36 0.375,4.76 0.274,7.21 -0.082,1.99 -0.543,3.86 -0.496,6.05 0.113,1.82 0.222,3.66 0.304,5.47 -0.039,3.67 -0.285,7.66 -0.207,11.52 0.051,2.23 0.363,4.58 0.305,6.92 -0.063,2.56 -0.567,5.1 -0.496,7.79 0.301,3.15 0.59,6.32 0.887,9.49 0.082,3.09 -0.18,6.06 -0.168,8.94 0.031,6.46 0.316,13.45 0.351,20.16 0.051,1.35 0.121,2.68 0.156,4.03 -0.132,2.88 -0.297,5.76 -0.445,8.64 0.231,2.49 0.445,4.99 0.699,7.49 0.227,11.99 0.192,24.33 0.461,36.02 0.02,4.04 0.02,8.06 0.039,12.09 -0.117,2.85 -0.539,5.63 -0.472,8.64 0.101,1.92 0.199,3.86 0.32,5.75 0.055,10.11 -0.18,20.25 -0.121,30.54 0.023,3.73 0.351,7.09 0.332,10.68 -0.059,4.03 -0.223,8.41 -0.203,12.66 0.019,2.77 0.324,5.46 0.336,8.36 0.011,2.3 -0.442,5.51 0.32,7.48 0.016,0.57 0.687,0.48 1.168,0.54 4.144,0.58 9.363,1.12 13.809,0.43 5.476,-0.84 11.003,0.05 16.722,0.01 5.082,-0.03 10.164,-0.04 15.27,-0.05 3.074,0.17 6.133,0.33 9.226,0.5 5.739,-0.04 11.063,-0.39 16.684,-0.34 6.746,0.05 14.043,0.16 21.058,0.12 1.997,-0.09 4.012,-0.19 6.04,-0.27 2.859,0.16 5.753,0.28 8.644,0.44 2.399,-0.06 4.649,-0.56 7.199,-0.57 3.227,-0.02 6.153,0.29 9.196,0.21 4.734,-0.09 9.82,-0.11 14.718,-0.39 2.289,-0.18 4.59,-0.35 6.891,-0.54 6.777,0.07 13.84,0.36 20.473,0.43 4.523,-0.13 9.039,-0.24 13.535,-0.38 3.824,0.05 7.613,0.79 11.515,0.77 2.735,-0.02 5.762,-0.28 8.653,-0.29 2.594,0.04 5.176,0.09 7.769,0.11 2.973,-0.23 5.961,-0.46 8.938,-0.71 2.304,0.11 4.617,0.21 6.914,0.33 4.523,-0.17 9.012,-0.33 13.535,-0.51 2.129,0.18 4.234,0.34 6.344,0.51 12.296,0.31 23.876,0.01 36.286,0.12 2.72,0.16 5.4,0.34 8.08,0.5 5.54,0.15 11.39,-0.24 16.7,0.15 1.18,0.1 2.31,0.23 3.47,0.32 4.62,-0.46 10.02,0.03 14.98,-0.08 2.06,-0.04 3.76,-0.54 5.75,-0.58 2.21,0.08 4.43,0.13 6.62,0.2 3.55,-0.12 7.66,-0.55 11.24,-0.51 2.49,0.01 4.89,0.49 7.51,0.42 1.83,-0.16 3.64,-0.33 5.47,-0.5 2.54,-0.04 5.43,0.32 8.06,0.11 1.82,-0.28 3.64,-0.54 5.48,-0.8 1.52,0.05 3.07,0.12 4.61,0.19 1.62,-0.11 3.25,-0.18 4.9,-0.27 1.63,0.06 3.26,0.16 4.88,0.24 3.09,0.04 6.05,-0.32 8.93,-0.12 4.7,0.35 9.31,-0.34 14.13,-0.29 2.3,0.14 4.6,0.3 6.89,0.46 1.55,-0.09 3.08,-0.17 4.63,-0.25 1.44,-0.01 3.26,0.18 4.48,-0.32 0.09,-0.07 0.21,-0.18 0.33,-0.26 1.02,-1.51 0.64,-4.32 0.61,-6.37 -0.04,-6.58 -0.33,-12.95 -0.05,-19.29 0.15,-4.02 0.09,-8.62 0.13,-12.68 -0.08,-1.34 -0.13,-2.69 -0.21,-4.01 0.09,-2.9 0.23,-5.76 0.32,-8.64 -0.15,-2.9 -0.3,-5.77 -0.48,-8.68 0.24,-3.73 0.48,-7.49 0.72,-11.23 -0.18,-1.41 -0.33,-2.88 -0.5,-4.31 -0.1,-2.51 0.4,-4.78 0.38,-7.21 -0.15,-2.5 -0.31,-4.99 -0.46,-7.48 -0.02,-3.08 -0.08,-6.15 -0.11,-9.21 -0.16,-2.31 -0.35,-4.62 -0.51,-6.91 0.27,-3.76 0.54,-7.5 0.77,-11.23 -0.1,-1.36 -0.21,-2.71 -0.35,-4.05 -0.11,-3.11 -0.34,-6.24 -0.3,-9.22 0.05,-5.33 0.5,-11.28 0.55,-16.41 -0.13,-1.16 -0.26,-2.31 -0.38,-3.47 0.1,-2.4 0.19,-4.77 0.29,-7.17 -0.14,-2.78 -0.41,-5.91 -0.42,-8.96 0,-2.23 0.48,-4.16 0.42,-6.34 -0.14,-1.15 -0.29,-2.31 -0.46,-3.46 0.07,-1.52 0.13,-3.07 0.17,-4.59 -0.13,-5.78 -0.66,-11.38 -0.58,-17.3 0.1,-2.87 0.17,-5.75 0.29,-8.65 0.13,-1.16 0.27,-2.29 0.44,-3.45 -0.07,-1.92 -0.19,-3.84 -0.27,-5.76 0.06,-1.24 0.14,-2.49 0.2,-3.74 -0.18,-2.11 -0.33,-4.22 -0.5,-6.33 0.01,-2.87 0.71,-5.89 0.6,-8.93 -0.31,-8.43 -0.78,-16.39 -0.84,-24.78 -0.02,-3.4 0.53,-6.42 0.5,-9.8 -0.16,-1.83 -0.36,-3.65 -0.54,-5.46 -0.03,-3.95 -0.07,-7.89 -0.13,-11.82 -0.19,-2.11 -0.39,-4.22 -0.56,-6.34 0.1,-7.97 0.21,-15.93 0.33,-23.89 -0.04,-5.55 -0.6,-11.44 -0.55,-17.004 0.14,-2.981 0.29,-5.953 0.41,-8.953 -0.05,-1.157 -0.13,-2.293 -0.19,-3.461 -0.02,-2.102 -0.04,-4.203 -0.06,-6.336 -0.04,-5.141 0.21,-10.321 0.2,-15.246 -0.04,-5.981 0.01,-12.434 -0.12,-18.719 -0.08,-1.746 -0.16,-3.445 -0.21,-5.18 0.11,-1.07 0.25,-2.113 0.38,-3.172 -0.17,-3.668 -0.36,-7.312 -0.52,-10.949 -0.07,-3.074 0.37,-6.336 0.16,-9.5 -0.35,-1.926 -0.72,-3.863 -1.05,-5.805 -0.27,-2.082 -0.54,-4.164 -0.79,-6.265 -0.73,-3.57 -3.34,-8.723 -5.24,-11.77 -1.64,-2.632 -4.39,-4.058 -6.49,-6.172 -1.28,-1.234 -2.7,-2.062 -4.03,-3.171 -2.46,-2.102 -4.9,-4.321 -7.69,-5.797 -1.78,-0.664 -3.55,-1.332 -5.33,-1.985 -3.6,-1.468 -7.19,-3.086 -10.87,-4.488 -3.38,-1.269 -6.97,-2.215 -10.34,-3.48 -0.82,-0.309 -1.7,-0.618 -2.55,-0.895 -1.86,0.008 -4.35,-0.84 -5.79,-1.707 -1.6,0.02 -3.3,-0.176 -4.59,-0.84 -2.45,0.028 -4.19,-0.683 -6.18,-1.418 -0.62,-0.191 -1.26,-0.375 -1.89,-0.551 -1,0 -2.13,-0.105 -2.91,-0.546 -1.91,0.007 -6.35,-0.879 -7.78,-1.692 -1.69,0 -3.76,0.309 -5.18,-0.269 -1,0 -2.13,-0.114 -2.9,-0.559 -1.55,0.02 -3.38,0.191 -4.61,-0.551 -0.76,-0.086 -1.55,-0.179 -2.31,-0.277 -1.21,0 -2.5,-0.039 -3.45,-0.551 -1.07,0 -2.31,-0.125 -3.17,-0.558 -2.01,0.019 -5.01,0.328 -6.63,-0.559 -0.77,-0.078 -1.54,-0.156 -2.3,-0.25 -1.97,0.027 -4.39,0.723 -6.07,-0.274 -1.14,0.024 -2.52,0.176 -3.46,-0.25 -0.58,-0.117 -1.15,-0.191 -1.71,-0.269 -1.86,0 -4.21,0.348 -5.77,-0.262 -0.77,-0.105 -1.54,-0.191 -2.31,-0.277 -0.58,-0.098 -1.16,-0.192 -1.72,-0.27 -0.59,-0.117 -1.17,-0.214 -1.72,-0.289 -0.88,-0.097 -1.74,-0.175 -2.62,-0.289 -1.2,0.02 -2.52,-0.039 -3.46,-0.543 -0.77,-0.074 -1.53,-0.191 -2.31,-0.269 -1.29,0 -2.77,0.039 -3.75,-0.571 -1.22,0 -2.52,-0.007 -3.44,-0.558 -0.99,0 -2.15,-0.113 -2.88,-0.528 -0.92,0 -1.9,-0.164 -2.61,-0.582 -0.57,-0.085 -1.14,-0.171 -1.72,-0.296 -1.48,0.019 -3.44,-0.426 -4.63,-1.09 -0.94,0 -1.87,-0.164 -2.6,-0.59 -3.01,0.019 -5.615,-1.348 -8.162,-2.344 -1.976,-0.723 -3.973,-1.445 -5.953,-2.18 -3.867,0.02 -7.961,-3.546 -10.812,-5.91 -2.493,-2.047 -5.715,-3.058 -8.165,-5.371 -6.839,-6.336 -10.96,-14.863 -14.355,-23.109"
         style="fill:#ffffff;fill-opacity:1;fill-rule:nonzero;stroke:none"
         id="path84" />
      <path
         d="m 988.414,852.555 c 1.77,0.742 3.539,1.496 5.328,2.246 3.5,1.043 7.188,1.707 10.888,2.508 6.92,1.496 13.62,3.308 20.55,4.765 1.71,0.106 3.4,0.219 5.1,0.336 2.69,0.492 5.31,1.156 8.12,1.406 3.64,0.137 7.29,0.254 10.95,0.368 4.38,0.328 8.84,1.273 13.27,1.593 3.96,0.289 7.89,0.422 11.78,0.926 3.49,0.539 6.95,1.125 10.41,1.695 1.15,0.079 2.3,0.184 3.42,0.262 5.37,0.867 10.54,2.141 15.66,3.336 1.76,0.426 3.43,0.617 5.11,1.102 4.93,1.453 9.71,3.382 14.5,4.918 4.03,1.308 7.92,2.523 11.69,4.242 3.28,1.496 6.02,3.597 9.08,5.508 5.44,3.422 11.38,7.058 14.76,12.797 1.51,2.546 2.9,6.335 3.36,9.355 0.12,1.426 0.22,2.871 0.31,4.32 1.04,6.219 0.89,13.039 0.81,19.539 0.12,2.305 0.19,4.618 0.32,6.934 -0.09,1.234 -0.14,2.488 -0.24,3.73 0,2.489 0,4.989 -0.02,7.477 -0.13,0.965 -0.25,1.937 -0.39,2.902 0.1,0.86 0.2,1.715 0.3,2.586 -0.1,0.848 -0.2,1.727 -0.32,2.594 0.04,1.695 0.51,3.094 0.51,4.891 0.02,1.925 -0.49,3.336 -0.51,5.195 -0.01,2.199 0.54,3.828 0.61,6.027 0.13,7.582 0.06,15.035 0.34,22.5 -0.08,1.817 -0.13,3.627 -0.19,5.437 0.04,6.65 0.07,13.26 0.1,19.87 0.38,18.05 0.15,37.29 0.55,55.34 -0.11,1.9 -0.19,3.84 -0.33,5.75 -0.07,0.58 -0.15,1.13 -0.22,1.71 0.09,1.44 0.4,3.05 0.35,4.62 -0.13,1.06 -0.24,2.12 -0.35,3.16 0.06,1.5 0.44,3 0.42,4.63 -0.04,3.33 -0.83,6.16 -0.81,9.5 0.02,2.3 0.35,4.27 0.5,6.34 -0.02,1.06 -0.05,2.13 -0.1,3.17 0.16,1.04 0.31,2.13 0.47,3.17 -0.13,1.25 -0.27,2.49 -0.45,3.75 0.18,1.42 0.32,2.87 0.47,4.3 -0.04,1.32 -0.44,2.39 -0.44,3.78 0.03,7.86 0.09,15.74 0.13,23.59 0.02,1.8 0.48,3.21 0.54,4.93 0.06,1.7 -0.48,2.97 -0.43,4.58 0.14,0.87 0.3,1.75 0.43,2.61 0.13,2.59 0.25,5.17 0.41,7.77 -0.06,3.95 -0.1,8.27 -0.25,12.39 -0.16,1.33 -0.34,2.67 -0.51,4.03 -0.02,3.25 0.56,6.1 0.52,9.22 -0.13,2.4 -0.29,4.79 -0.42,7.2 0.1,18.55 -0.62,36.36 0.07,54.77 0.06,10.05 0.12,20.13 0.18,30.21 0.19,5.47 -0.22,11.42 -0.27,16.72 -0.06,5.41 0.05,10.31 0.09,15.84 -0.09,0 -0.19,0 -0.3,0 0,0.6 -2.71,0.23 -3.17,0.02 -5.36,0.06 -10.75,0.14 -16.1,0.21 -3.49,0.31 -6.96,0.55 -10.68,0.5 -1.03,0 -2.31,0.11 -3.16,-0.27 -1.32,-0.12 -2.69,-0.27 -4.03,-0.4 -1.92,0.23 -3.85,0.48 -5.79,0.73 -6.71,0.05 -13.43,0.09 -20.15,0.13 -1.88,0.02 -6.77,0.62 -8.06,0.05 -3.46,0.03 -6.91,0.08 -10.36,0.12 -2.62,0.19 -6.37,1.29 -8.95,0.29 -0.75,-0.1 -1.54,-0.19 -2.28,-0.29 -2.51,0.03 -5,0.06 -7.51,0.1 -3.71,0.26 -7.35,0.86 -11.22,0.88 -2.89,-0.84 -7.02,0.56 -9.81,-0.53 -0.76,-0.09 -1.53,-0.18 -2.28,-0.27 -2.98,0.01 -5.95,0.03 -8.94,0.04 -1.45,0 -3.43,0.27 -4.62,-0.27 -0.9,0.01 -2.16,0.1 -2.9,-0.26 -2.47,0.01 -4.55,0.52 -6.9,0.6 -5.94,0.02 -11.89,0.08 -17.844,0.11 -2.161,0.01 -5.36,0.48 -7.188,-0.26 -0.683,-0.08 -1.359,-0.17 -2.039,-0.27 -0.867,-0.08 -1.738,-0.17 -2.59,-0.26 -3.359,0.01 -8.926,1.77 -11.816,0.62 -0.578,-0.07 -1.141,-0.17 -1.719,-0.26 -1.273,0 -2.762,-0.02 -3.762,-0.56 -8.586,0.04 -17.152,0.1 -25.347,0.28 -2.176,0.06 -4.477,-0.06 -6.621,-0.05 -1.024,0 -2.551,0.42 -3.457,-0.03 -2.125,0.03 -4.215,0.06 -6.34,0.09 -2.934,0.2 -9.43,1.38 -12.094,0.3 -1.93,0.03 -3.84,0.06 -5.766,0.07 -1.269,0.12 -2.824,0.47 -4.054,-0.01 -1.703,0 -3.985,0.32 -5.45,-0.26 -3.437,0.02 -6.464,0.61 -10.085,0.64 -1.145,0 -2.489,0.13 -3.454,-0.28 -2.132,0.02 -5.121,0.47 -6.914,-0.25 -3.273,0.01 -6.531,0.03 -9.808,0.05 -1.524,0.01 -3.629,0.31 -4.875,-0.25 -4.129,-0.04 -8.266,-0.05 -12.387,-0.07 -2.621,0.19 -7.684,1.16 -10.098,0.19 -2.597,0.02 -7.074,0.9 -9.222,0.07 -5.45,0.01 -10.461,0.33 -15.844,0.7 -1.895,0.14 -4.813,0.78 -6.629,-0.03 -1.062,0.03 -2.258,0.15 -3.168,-0.27 -2.059,0.02 -4.871,0.46 -6.609,-0.24 -1.821,0.01 -4.617,0.47 -6.071,-0.24 -6.812,0.03 -14.035,0.37 -21.293,0.4 -2.121,0 -5.14,0.47 -6.925,-0.25 -2.621,0.01 -8.36,0.56 -10.379,-0.22 -1.52,0 -4.192,0.43 -5.192,-0.54 -1.621,-1.54 -0.73,-9.09 -0.675,-11.54 -0.067,-1.91 -0.141,-3.84 -0.235,-5.76 0.063,-1.75 0.317,-3.57 0.121,-5.46 0,-2.7 0.004,-5.38 0.02,-8.07 -0.274,-7.36 -0.348,-14.39 -0.391,-21.92 -0.015,-2.03 -0.512,-3.55 -0.582,-5.45 -0.086,-2 0.356,-3.94 0.336,-5.75 -0.242,-1.83 -0.461,-3.67 -0.684,-5.48 0.098,-3.84 0.168,-7.67 0.29,-11.5 -0.274,-6.54 -0.575,-13.55 -0.5,-20.48 0.101,-2.69 0.199,-5.37 0.296,-8.04 0.106,-0.89 0.219,-1.74 0.329,-2.6 -0.223,-1.64 -0.411,-3.29 -0.633,-4.9 0.125,-11.74 -0.199,-22.95 -0.266,-34.87 -0.027,-5.17 0.25,-9.94 0.141,-14.98 -0.184,-2.48 -0.364,-4.98 -0.551,-7.5 0.066,-3.74 0.144,-7.49 0.223,-11.23 -0.047,-7.43 -0.368,-15.17 -0.293,-22.76 0.132,-2.69 0.234,-5.36 0.355,-8.06 -0.168,-3.45 -0.355,-6.91 -0.555,-10.37 -0.066,-13.63 0.164,-27.78 0.282,-41.49 0.05,-3.4 -0.571,-6.26 -0.582,-9.78 -0.028,-3.65 -0.047,-7.3 -0.047,-10.93 0.078,-1.66 0.144,-3.29 0.211,-4.91 -0.258,-12.4 -0.68,-24.31 -0.746,-36.872 -0.039,-5.7 -0.653,-10.664 -0.676,-16.133 0,-2.395 0.012,-4.793 0.023,-7.188 0.114,-0.953 0.262,-1.918 0.387,-2.871 -0.152,-0.976 -0.313,-1.941 -0.441,-2.886 -0.153,-2.766 -0.317,-5.7 -0.336,-8.348 -0.012,-3.387 0.058,-7.121 0.211,-10.668 0.058,-1.602 0.507,-2.934 0.5,-4.621 -0.016,-1.707 -0.528,-2.981 -0.536,-4.602 -0.019,-1.965 0.512,-3.422 0.504,-5.476 -0.093,-14.891 0.075,-29.231 6.828,-40.563 4.661,-7.746 13.215,-12.625 20.997,-15.969 5.398,-2.335 10.929,-5.007 16.796,-6.394 4.344,-1.004 8.625,-1.555 13.18,-2.344 3.457,-0.597 7.055,-1.484 10.684,-1.871 3.449,-0.269 6.894,-0.543 10.347,-0.793 7.411,-0.914 14.661,-2.219 22.196,-3.133 3.531,-0.172 7.086,-0.367 10.629,-0.519 1.539,-0.328 3.07,-0.668 4.617,-1.004 2.781,-0.059 5.586,-0.078 8.344,-0.156 2.976,-0.27 5.953,-0.539 8.929,-0.848 1.535,-0.066 3.055,-0.125 4.602,-0.152 1.344,-0.36 2.691,-0.668 4.047,-0.977 3.82,-0.578 7.375,-0.992 11.199,-1.734 1.18,-0.387 2.355,-0.774 3.543,-1.196 2.601,-0.754 4.98,-1.379 7.472,-2.355 3.618,-1.32 7.258,-2.633 10.883,-3.926 2.645,-1.34 5.25,-2.641 7.918,-3.98 1.395,-0.946 2.824,-1.891 4.211,-2.836 2.903,-1.668 5.758,-3.098 8.399,-5.266 3.254,-2.644 5.484,-5.863 8.339,-8.93 0.922,-1.035 1.411,-2.39 2.657,-3.086 0,-0.484 0.164,-0.308 0.593,-0.308 0,0.5 1.45,1.418 1.836,1.887 0.614,0.937 1.196,1.863 1.793,2.796 6.297,9.204 15.661,15.79 25.161,20.864 1.464,0.492 2.91,1.039 4.394,1.543"
         style="fill:#15213a;fill-opacity:1;fill-rule:nonzero;stroke:none"
         id="path86" />
      <path
         d="m 990.086,1291.37 c 0,-0.08 0,-0.18 0,-0.28 -0.289,0 -0.586,0 -0.871,0 -0.004,0.95 -0.027,1.91 -0.055,2.85 0.414,2.88 2.785,4.19 4.414,6.34 3.063,-2.67 -1.66,-6.94 -3.488,-8.91"
         style="fill:#ffffff;fill-opacity:1;fill-rule:nonzero;stroke:none"
         id="path88" />
      <path
         d="m 1005.04,1315.38 c 1.21,1.3 1.88,2.88 2.94,4.31 0.9,0.89 1.82,1.78 2.75,2.7 2.06,-0.23 4,-0.53 6.31,-0.64 0,-0.28 0,-0.57 0,-0.86 -3.06,0.04 -11.25,-10.14 -13.15,-12.71 -0.89,-1.21 -1.95,-3.6 -3.34,-4.34 -0.847,-0.42 -1.835,-0.07 -2.523,0.36 -1.961,1.21 -0.5,3.36 0.071,4.78 0.359,0.88 0.449,1.94 1.211,2.6 0.801,0.39 1.551,0.78 2.351,1.19 1.13,0.85 2.24,1.73 3.38,2.61"
         style="fill:#ffffff;fill-opacity:1;fill-rule:nonzero;stroke:none"
         id="path90" />
      <path
         d="m 985.477,1308.44 c 0.484,1.48 0.472,3.1 1.207,4.45 0.902,1.77 3.132,2.21 4.492,3.47 1.23,1.13 1.496,2.68 2.465,3.91 1.019,1.32 2.425,1.57 3.82,2.18 1.137,0 2.301,-0.01 3.449,-0.01 0,-1.43 -1.883,-2.9 -2.582,-4.05 -0.945,-1.57 -1.89,-3.21 -2.859,-4.74 -1.106,-1.5 -2.242,-3.02 -3.375,-4.54 -0.762,-1.18 -1.028,-2.52 -1.977,-3.59 -0.695,-0.55 -1.39,-1.11 -2.109,-1.64 -0.625,-0.72 -1.262,-1.42 -1.895,-2.1 -0.64,-0.61 -1.281,-1.21 -1.929,-1.82 -1.176,-1.42 -1.176,-3.5 -2.746,-4.75 -1.375,-1.06 -3.868,-1.79 -5.75,-1.16 -0.176,0 -0.391,0 -0.579,0 0.008,0.87 3.789,6.73 4.649,7.48 0.793,0.68 1.953,0.73 2.582,1.64 0.57,0.85 0.48,1.86 0.976,2.73 0.582,1.04 1.747,1.37 2.161,2.54"
         style="fill:#ffffff;fill-opacity:1;fill-rule:nonzero;stroke:none"
         id="path92" />
      <path
         d="m 963.645,1312.5 c 0.343,1.43 1.707,2.37 2.121,3.79 0.496,1.67 -0.114,3.09 1.074,4.44 1.219,1.4 8.629,0.28 11.039,1.55 1.543,-0.01 3.047,-0.01 4.586,-0.03 0,-0.2 0,-0.39 0,-0.59 -0.445,0 -0.445,-0.22 -0.645,-0.51 -2.246,-3.17 -3.402,-6.85 -4.98,-10.34 -0.723,-1.26 -1.469,-2.53 -2.172,-3.82 -0.582,-1.37 -1.168,-2.78 -1.738,-4.15 -1.489,-2.78 -5.219,-7.54 -8.469,-8.15 0,0.1 0,0.2 0,0.29 -0.5,0.01 -0.336,2.63 -0.402,3.15 -0.235,1.27 -0.731,2.34 -0.563,3.78 0.137,1.54 0.965,2.58 0.938,4.3 -0.067,2.11 -1.301,4.17 -0.789,6.29"
         style="fill:#ffffff;fill-opacity:1;fill-rule:nonzero;stroke:none"
         id="path94" />
      <path
         d="m 940.754,1322.16 c 1.059,1.13 5.226,0.38 6.875,0.86 1.816,-0.61 6.437,-0.55 8.637,-0.63 0.043,-1.26 0.101,-2.5 0.156,-3.77 0.219,-0.95 0.441,-1.91 0.644,-2.86 -0.179,-1.05 -0.355,-2.11 -0.527,-3.15 -0.105,-4.59 -0.687,-9.11 -0.926,-13.55 0.157,-2.79 0.309,-5.57 0.465,-8.35 -0.078,0 -0.195,0 -0.281,0 0,0.09 0,0.18 0,0.29 -3.664,0.02 -7.875,11.21 -9.344,13.78 -0.828,1.43 -2.09,2.34 -3.07,3.69 -2.067,2.89 -5.797,10.33 -2.629,13.69"
         style="fill:#ffffff;fill-opacity:1;fill-rule:nonzero;stroke:none"
         id="path96" />
      <path
         d="m 917.438,1319.96 c 0.011,0.07 0.027,0.12 0.054,0.19 0.598,1.75 5.141,1.79 6.774,2.72 1.703,-0.01 3.906,0.29 5.3,-0.39 4.094,-2.01 5.469,-7.98 7.114,-11.75 1.054,-2.44 2.492,-4.8 3.66,-7.24 0.785,-1.3 1.531,-2.58 2.293,-3.87 0.527,-1.3 0.711,-2.72 0.758,-4.23 0.019,-1.07 0.203,-3.1 -0.801,-3.62 -0.817,-0.45 -2.047,-0.24 -2.84,0.09 -1.5,0.57 -22.215,26.29 -22.324,27.63 0,0.08 0,0.15 0,0.24 0,0.07 0.012,0.16 0.012,0.23"
         style="fill:#ffffff;fill-opacity:1;fill-rule:nonzero;stroke:none"
         id="path98" />
      <path
         d="m 906.145,1322.68 c 2.144,-0.36 3.418,-0.98 4.98,-2.53 2.285,-2.2 4.234,-4.84 6.07,-7.42 0.938,-1.31 1.473,-2.78 2.59,-4.06 1.434,-1.54 2.887,-3.07 4.313,-4.59 1.281,-1.62 2.547,-3.22 3.82,-4.85 0.465,-0.69 0.898,-1.37 1.371,-2.07 0.914,-0.81 1.852,-1.61 2.77,-2.41 1.933,-1.86 3.695,-4.16 4.691,-6.52 -0.457,0 -0.441,-0.5 -0.555,-0.86 -1.578,0 -3.5,0.57 -4.625,1.46 -1.851,1.88 -3.699,3.78 -5.562,5.67 -1.188,1.18 -2.574,1.66 -3.598,3.01 -1.98,2.66 -3.476,5.82 -5.91,8.2 -1.402,1.38 -3.41,1.64 -4.828,2.98 -0.039,0.04 -0.086,0.1 -0.125,0.13 -1.5,1.57 -2.039,3.67 -3.313,5.36 -1.453,1.91 -3.574,3.21 -4.949,5.11 -0.047,0.12 -0.129,0.26 -0.191,0.37 -0.028,0.08 -0.039,0.15 -0.067,0.22 -0.25,1.64 2.051,2.28 3.118,2.8"
         style="fill:#ffffff;fill-opacity:1;fill-rule:nonzero;stroke:none"
         id="path100" />
      <path
         d="m 970.621,1262.69 c 0.828,-0.11 1.649,-0.2 2.465,-0.3 2.477,-0.91 4.637,-4.56 3.707,-7.19 -0.512,-1.41 -2.09,-2.65 -3.289,-3.57 -0.828,-0.65 -2.051,-1.63 -3.242,-1.54 -1.672,0.17 -0.969,3.72 -0.551,4.68 0.59,1.32 2.074,1.68 2.172,3.31 0.148,1.92 -1.274,2.79 -1.262,4.61"
         style="fill:#ffffff;fill-opacity:1;fill-rule:nonzero;stroke:none"
         id="path102" />
      <path
         d="m 974.668,1274.51 c -0.973,-0.58 -2.109,-2.16 -3.383,-2.01 -1.769,0.22 -2.492,2.52 -3.656,3.59 -1.274,1.22 -3.938,1.83 -3.57,4.16 0.125,0.95 0.968,1.45 1.773,1.75 0,0.08 0,0.2 0,0.28 1.938,-0.37 3.27,-1.35 5.012,-2.09 1.996,-0.83 4.023,-1.3 6.101,-2.08 0.438,-0.16 0.629,-0.66 0.465,-1.14 -0.414,-1.23 -1.75,-1.84 -2.742,-2.46"
         style="fill:#ffffff;fill-opacity:1;fill-rule:nonzero;stroke:none"
         id="path104" />
      <path
         d="m 970.914,1238.85 c -0.387,-2.11 -5.18,-2.99 -6.828,-1.96 -2.445,1.52 2.234,4.55 3.246,5.35 1.231,-0.33 3.895,-1.72 3.582,-3.39"
         style="fill:#ffffff;fill-opacity:1;fill-rule:nonzero;stroke:none"
         id="path106" />
      <path
         d="m 958.367,1240.68 c -0.808,-0.17 -1.242,0.58 -1.781,0.93 -0.664,0.43 -1.438,0.55 -2.02,1.2 -1.476,1.63 -1.039,3.35 -1.128,5.56 -0.067,1.14 -0.266,2.56 0.156,3.6 0.363,0.94 1.261,1.35 1.996,1.87 0.941,-0.05 1.703,-0.11 2.422,-0.55 0.828,-0.52 6.644,-6.15 6.758,-6.76 0.382,-2.17 -4.653,-5.49 -6.403,-5.85"
         style="fill:#ffffff;fill-opacity:1;fill-rule:nonzero;stroke:none"
         id="path108" />
      <path
         d="m 992.215,1259.12 c -0.012,-2.09 -1.082,-4.35 -2.918,-5.18 -0.012,-0.45 -1.016,0.18 -1.453,0.31 0.011,2.09 2.726,3.6 4.101,4.87 0.075,0 0.172,0 0.27,0"
         style="fill:#ffffff;fill-opacity:1;fill-rule:nonzero;stroke:none"
         id="path110" />
      <path
         d="m 986.793,1262.83 c -0.715,-0.52 -1.383,-1.13 -2.348,-1.12 -1.004,0.02 -1.422,0.66 -1.726,1.49 -0.239,0.73 -0.149,10.04 0.101,10.85 0.313,1 1.856,1.85 2.563,2.66 2.183,-0.67 2.058,-1.99 2.805,-3.95 1.359,-3.6 2.316,-7.18 -1.395,-9.93"
         style="fill:#ffffff;fill-opacity:1;fill-rule:nonzero;stroke:none"
         id="path112" />
      <path
         d="m 983.223,1246.19 c 0.261,0 0.168,-0.08 -0.016,-0.29 0,-1.32 -3.738,-3.66 -4.898,-2.52 -1.641,1.58 0.382,3.24 1.441,4.28 1.531,-0.12 2.656,-0.2 3.473,-1.47"
         style="fill:#ffffff;fill-opacity:1;fill-rule:nonzero;stroke:none"
         id="path114" />
      <path
         d="m 956.863,1276.59 c 1.032,-0.11 2.024,-0.23 3.043,-0.33 1.797,-0.6 7.532,-5.23 6.914,-7.51 -0.531,-2.02 -2.445,-3.2 -3.91,-4.67 -1.519,-1.48 -3.351,-3.23 -5.535,-3.49 -2.16,-0.27 -5.242,9.35 -4.844,11.06 0.203,0.76 3.582,4.22 4.317,4.64 0,0.1 0,0.19 0.015,0.3"
         style="fill:#ffffff;fill-opacity:1;fill-rule:nonzero;stroke:none"
         id="path116" />
      <path
         d="m 950.164,1253.22 c -1.121,-0.95 -2.59,-2.64 -4.137,-2.74 -1.195,-0.09 -1.773,0.76 -2.55,1.42 -1.895,1.65 -3.262,5.03 -2.618,7.72 0.442,0.82 0.848,1.62 1.293,2.44 0.786,2.33 0.457,2.74 2.27,4.52 2.473,-1.16 9.598,-6.42 8.875,-9.78 -0.313,-1.39 -2.117,-2.68 -3.133,-3.58"
         style="fill:#ffffff;fill-opacity:1;fill-rule:nonzero;stroke:none"
         id="path118" />
      <path
         d="m 951.461,1237.43 c -0.094,0 -0.176,0 -0.281,0 0,-0.5 -1.059,-0.19 -1.418,-0.09 -4.352,0.91 -9.047,2.03 -5.457,7.35 0.695,-0.11 1.3,-0.12 1.812,-0.55 1.016,-0.76 1.321,-1.89 2.059,-2.82 1.101,-1.42 2.769,-2.12 3.285,-3.89"
         style="fill:#ffffff;fill-opacity:1;fill-rule:nonzero;stroke:none"
         id="path120" />
      <path
         d="m 931.52,1274.13 c 0.007,0 2.085,2.51 2.878,2.88 0,0.09 0,0.19 0,0.28 3.622,-2.35 6.571,-6.57 2.821,-10.39 -0.746,-0.75 -1.953,-1.77 -2.973,-1.94 -3.367,-0.5 -1.949,3.64 -1.996,5.41 -0.027,1.34 -0.426,2.58 -0.73,3.76"
         style="fill:#ffffff;fill-opacity:1;fill-rule:nonzero;stroke:none"
         id="path122" />
      <path
         d="m 938.164,1279.57 c 0,0.28 0,0.58 0,0.85 0.578,0.16 1.16,0.33 1.746,0.47 3.606,0.52 5.914,1.07 8.918,2.66 0.938,-0.26 2.418,-0.26 2.996,-1.19 1.625,-2.53 -5.969,-7.7 -8.191,-7.47 -2.465,0.28 -3.754,3.22 -5.469,4.68"
         style="fill:#ffffff;fill-opacity:1;fill-rule:nonzero;stroke:none"
         id="path124" />
      <path
         d="m 933.703,1255.68 c 0.539,-0.15 1.078,-0.33 1.621,-0.47 1.383,-0.83 6.414,-5.63 6.563,-7.12 0.164,-1.62 -4.09,-4.6 -5.446,-4.9 -1.156,-0.22 -1.464,0.94 -1.812,1.77 -1.336,3.3 -2.301,6.92 -0.926,10.72"
         style="fill:#ffffff;fill-opacity:1;fill-rule:nonzero;stroke:none"
         id="path126" />
      <path
         d="m 927.824,1258.72 c -2.801,-0.69 -2.203,4.73 -2.121,6.52 2.055,-0.7 6.258,-5.47 2.121,-6.52"
         style="fill:#ffffff;fill-opacity:1;fill-rule:nonzero;stroke:none"
         id="path128" />
      <path
         d="m 963.461,959.109 c 0,0.813 6.25,9.914 7.172,11.016 0.476,0.578 1.18,1.039 1.82,1.313 0,0.078 0,0.191 0,0.308 1.438,-0.012 2.887,-0.039 4.34,-0.039 -0.031,-1.773 -6.852,-11.824 -8.617,-12.574 -1.258,-0.57 -2.965,-0.289 -4.446,-0.328 0,0.093 0,0.191 0,0.304 -0.085,0 -0.195,0 -0.269,0"
         style="fill:#ffffff;fill-opacity:1;fill-rule:nonzero;stroke:none"
         id="path130" />
      <path
         d="m 919.531,959.961 c -1.597,-0.676 -4.031,-0.242 -5.914,-0.289 0.028,2.594 10.578,10.183 12.735,12.312 1.441,0 2.882,0 4.332,0 -0.008,-2.129 -9.071,-11.129 -11.153,-12.023"
         style="fill:#ffffff;fill-opacity:1;fill-rule:nonzero;stroke:none"
         id="path132" />
      <path
         d="m 998.125,903.109 c -1.844,-0.812 -4.359,0.789 -5.383,2.129 -1.105,1.496 -1.492,3.242 -2.078,4.977 -0.914,2.75 -1.812,5.605 -2.887,8.316 -0.711,1.821 -2.093,4.262 -1.832,6.41 0.168,1.364 1.446,1.891 2.383,2.586 0.832,-0.203 1.422,-0.453 1.914,-1.195 0.551,-0.848 0.742,-1.793 1.078,-2.777 0.91,-2.684 1.793,-5.297 2.563,-8.075 0.89,-3.132 2.242,-6.343 3.578,-9.277 0.211,-0.5 1.633,-2.66 0.664,-3.094"
         style="fill:#ffffff;fill-opacity:1;fill-rule:nonzero;stroke:none"
         id="path134" />
      <path
         d="m 988.445,972.094 c 1.383,-1.93 9.614,-11.043 9.141,-12.77 -0.137,-0.426 -0.648,-0.48 -1.035,-0.57 -2.492,-0.027 -4.973,-0.066 -7.465,-0.086 -4.41,0.02 -8.832,0.059 -13.242,0.078 0,0.098 0,0.172 0.011,0.289 -0.109,0 -0.218,0 -0.3,0 0,0.965 0.773,1.832 1.172,2.594 1.382,2.586 6.796,9.926 6.441,12.594 -0.102,0.89 -0.762,1.562 -1.566,1.836 -3.477,1.195 -7.649,0.171 -11.426,0.304 -2,0.11 -6.582,1.102 -8.348,0.313 -3.777,0.015 -16.957,1.879 -18.504,-1.449 -0.386,-0.801 0.145,-1.715 0.473,-2.403 1.535,-3.027 3.902,-5.824 5.949,-8.59 1.113,-1.711 2.227,-3.406 3.336,-5.062 -0.008,-0.117 -0.008,-0.195 -0.008,-0.293 -0.281,-0.125 -0.586,-0.191 -0.863,-0.316 -8.106,0.058 -16.156,0.382 -24.191,0.433 0,0.192 0,0.387 0,0.578 0.269,0 11.789,13.906 13.05,15.489 0,0.378 -0.086,0.378 -0.293,0.589 -1.425,0.153 -2.894,0.375 -4.316,0.539 -2.402,0.118 -4.793,0.231 -7.203,0.368 -6.883,0.164 -14.149,-0.25 -20.731,0.406 0.008,0.808 9.828,10.277 11.145,11.64 8.348,8.766 17.039,17.195 25.758,25.765 3.004,3.1 5.988,6.16 8.984,9.2 0.969,0.94 1.852,1.96 3.07,2.38 0,0.17 0,0.39 0.016,0.59 1.938,-1 3.629,-2.97 5.219,-4.59 2.601,-2.67 5.207,-5.37 7.781,-8.04 1.656,-1.52 3.289,-3.03 4.938,-4.57 7.406,-7.73 15.296,-15.016 22.855,-22.676 3.107,-3.133 7.177,-6.336 9.607,-9.973 -0.56,-0.074 -1.15,-0.171 -1.73,-0.269 -2.37,0 -4.79,0.051 -7.197,0.058 -0.895,0.02 -2.035,0.29 -2.856,0 -3.293,0.02 -7.176,0.446 -9.816,-0.792 -0.024,-1.262 1.472,-2.622 2.144,-3.594"
         style="fill:#ffffff;fill-opacity:1;fill-rule:nonzero;stroke:none"
         id="path136" />
      <path
         d="m 906.887,939.418 c 1.168,2.008 23.375,0.289 27.066,0.27 5.735,-0.04 10.824,0.773 16.434,0.761 7.488,-0.047 15.429,-0.605 23.043,-0.636 3.867,-0.028 8.117,0.109 12.105,0.222 9.078,0.25 18.505,-0.172 27.355,-0.222 0.01,0.085 0.01,0.195 0.01,0.281 0.47,0 0.51,2.547 0.51,3.172 0.03,5.757 0.14,11.777 0.18,17.851 0.02,4.168 -0.11,8.379 0.62,12.094 4.71,-2.469 4.14,-8.371 4.29,-13.57 0.07,-3.192 0.29,-6.903 0.19,-10.348 -0.19,-1.859 -0.36,-3.664 -0.53,-5.488 -0.16,-2.746 0.65,-5.844 -0.39,-8.34 0,-0.192 0,-0.387 0,-0.578 -0.09,0 -0.19,0 -0.29,0 0,0.527 -1.78,0.297 -2.3,0.297 -4.56,0.031 -8.85,-0.231 -13.55,-0.192 -2.032,0 -4.884,0.422 -6.626,-0.269 -1.719,0 -3.992,0.355 -5.477,-0.25 -5.285,0.019 -10.308,0.054 -15.554,0.414 -2.321,0.164 -5.508,1.222 -7.77,0.297 -3.863,0 -7.66,0.308 -11.515,0.203 -0.852,-0.047 -1.911,0.222 -2.602,-0.114 -2.172,0 -7.016,0.836 -8.648,0.028 -1.278,0 -2.704,0.164 -3.75,-0.27 -3.641,0.047 -7.301,0.078 -10.938,0.114 -2.176,0.128 -4.609,0.195 -6.914,0.32 -0.773,0 -1.547,-0.027 -2.32,-0.027 -0.848,-0.098 -1.707,-0.165 -2.59,-0.293 -4.262,0.039 -7.672,-0.981 -9.731,2.671 -0.183,0.34 -0.566,1.161 -0.308,1.602"
         style="fill:#ffffff;fill-opacity:1;fill-rule:nonzero;stroke:none"
         id="path138" />
      <path
         d="m 1016.73,867.473 c -0.85,-1.196 -3.44,-1.524 -4.84,-1.696 0.04,7.184 -0.36,14.879 -0.08,22.219 0.08,2.094 -0.3,4.543 0.13,6.527 0.15,0.696 0.52,1.012 0.99,1.497 1.48,-0.028 2.86,0 4.03,-0.61 0.42,0 0.51,-3.086 0.41,-3.719 -0.22,-1.574 0.13,-3.156 0.13,-4.921 -0.02,-2.575 -0.43,-4.879 -0.3,-7.473 0.17,-2.66 0.96,-9.801 -0.47,-11.824"
         style="fill:#ffffff;fill-opacity:1;fill-rule:nonzero;stroke:none"
         id="path140" />
      <path
         d="m 1103.28,876.801 c -0.96,0 -2.14,-0.149 -2.88,-0.59 -1.43,0.019 -4.34,-0.734 -5.48,-1.398 -2.62,0 -4.87,-1.083 -7.24,-1.536 -1.62,-0.316 -3.36,-0.625 -4.88,-0.894 -1.14,-0.156 -2.48,-0.117 -3.47,-0.656 -0.65,-0.079 -1.33,-0.172 -2.01,-0.27 -0.66,-0.078 -1.34,-0.195 -2.02,-0.269 -1.72,0.019 -3.86,0.269 -5.18,-0.551 -0.68,-0.086 -1.34,-0.192 -2.03,-0.262 -2.79,0 -6.18,0.426 -8.35,-0.848 -1.04,0 -2.28,0.106 -3.17,-0.25 -1.32,0 -2.32,0.297 -3.44,0.598 -0.02,-0.598 -3.47,-1.09 -4.04,-1.437 -1.94,0.027 -4.39,0.367 -6.06,-0.223 -0.66,-0.125 -1.34,-0.192 -2,-0.297 -1.94,0.02 -4.24,0.223 -5.79,-0.551 -1.28,0.028 -2.71,-0.047 -3.74,-0.551 -1.88,0 -6.66,-0.48 -7.78,0.426 -1.86,1.477 -0.83,19.801 -0.76,23.231 -0.05,1.757 -0.15,3.472 -0.2,5.211 -0.08,1.824 0.54,7.945 -2.59,6.921 -1.78,0 -5.57,0.426 -6.89,-0.25 -1.9,0.02 -6.95,-0.367 -8.06,0.657 -1.97,1.871 -3.06,8.718 -4.08,11.468 -1.562,4.012 -4.093,8.051 -4.632,12.477 -0.07,0.453 -0.192,1.234 0.125,1.582 0.816,0.984 4.637,0.813 6.107,0.813 3.4,-0.032 18.83,-0.079 20.09,2.082 0.78,1.437 0.48,5.941 0.34,7.734 0.11,2.777 0.23,5.574 0.34,8.371 0.15,4.289 -0.83,9.297 0.46,13.231 9.82,-10.59 20.95,-20.29 31.06,-30.84 0.95,-1.196 1.87,-2.356 2.82,-3.539 2.52,-2.528 5.34,-4.793 7.94,-7.34 6.98,-6.86 13.45,-14.285 20.27,-21.16 5.23,-5.286 10.7,-10.473 15.93,-15.77 0.98,-0.961 2.66,-2.082 3.12,-3.402 0.38,-1.004 -1.31,-1.524 -1.83,-1.918"
         style="fill:#ffffff;fill-opacity:1;fill-rule:nonzero;stroke:none"
         id="path142" />
      <path
         d="m 1084.26,1150.39 c 1.58,1.86 3.16,3.74 4.77,5.61 1.86,1.95 4.02,3.47 5.92,5.28 2.52,2.58 5.02,5.17 7.55,7.74 2.84,2.71 5.69,5.43 8.53,8.18 5.57,5.77 11.11,11.53 16.68,17.31 8.54,8.17 17.25,16.22 25.12,25 2.01,2.28 5,4.15 6.57,6.68 1.41,-1.94 0.4,-7.08 0.56,-9.78 0.36,-6.37 0.06,-13.27 0.13,-19.89 0.15,-3.36 0.29,-6.71 0.45,-10.06 -0.2,-3.47 -0.35,-6.93 -0.55,-10.37 0.16,-2.02 0.3,-4.06 0.47,-6.06 -0.06,-0.98 -0.12,-1.91 -0.15,-2.88 0.11,-1.16 0.23,-2.31 0.32,-3.48 -0.11,-0.96 -0.25,-1.89 -0.4,-2.86 -0.44,-5.31 -0.49,-10.65 -0.41,-16.15 0.25,-2.77 0.5,-5.57 0.76,-8.35 -0.16,-1.54 -0.34,-3.05 -0.53,-4.6 -0.01,-3.45 -0.06,-6.92 -0.09,-10.38 -0.08,-1.16 -0.14,-2.28 -0.19,-3.45 0.05,-2.22 0.59,-4.49 0.55,-6.62 -0.08,-3.05 -0.81,-6.27 -0.77,-9.51 0.27,-3.95 0.52,-7.88 0.79,-11.82 -0.17,-2.41 -0.36,-4.79 -0.55,-7.19 0.13,-0.89 0.2,-1.75 0.32,-2.63 0.06,-2.58 -0.19,-5.21 -0.29,-7.73 0.12,-1.83 0.27,-3.67 0.39,-5.5 0,-1.41 -0.37,-2.72 -0.47,-4.03 -0.19,-2.76 -0.01,-5.53 0.31,-8.09 0.51,-3.98 0.35,-9.19 -0.06,-13.22 -0.13,-0.95 -0.29,-1.92 -0.44,-2.9 -0.14,-2.41 0.49,-4.55 0.44,-6.91 -0.17,-1.35 -0.34,-2.66 -0.51,-4.02 0.05,-1.43 0.13,-2.86 0.19,-4.31 -0.08,-1.93 -0.19,-3.85 -0.29,-5.78 -0.02,-1.81 1.12,-12.17 -0.6,-12.17 -1.13,0.01 -10.31,10.05 -11.86,11.59 -11.47,11.62 -23.11,23.42 -34.51,34.96 -1.82,1.84 -3.36,4 -5.14,5.73 -1.62,1.56 -3.25,3.14 -4.89,4.68 -0.81,0.97 -1.68,1.98 -2.5,2.94 -11.04,10.86 -22.22,21.87 -33.27,32.7 -1.98,1.94 -16.34,16.33 -16.39,17.28 0.07,0.27 0.1,0.53 0.13,0.79 1.11,2.72 5.63,5.75 7.87,7.89 2.45,2.34 4.25,4.94 6.55,7.27 2.06,2.13 4.32,4.17 6.4,6.27 0.78,0.65 1.56,1.31 2.35,1.98 1.8,1.84 3.58,3.71 5.38,5.56 1.79,1.77 3.56,3.52 5.36,5.3"
         style="fill:#ffffff;fill-opacity:1;fill-rule:nonzero;stroke:none"
         id="path144" />
      <path
         d="m 1018.02,1310.88 c 0.94,0.69 1.95,0.91 2.79,1.82 0.59,0.89 1.17,1.76 1.75,2.64 1.55,2.26 3.16,4.17 5.05,6.15 0.67,0.62 1.36,1.24 2.04,1.86 1.25,0.67 3.42,0.35 4.97,0.34 3.29,-0.02 6.54,0.14 9.51,0.45 1.46,0.16 2.8,0.06 4.04,0.62 2.21,-0.05 4.4,-0.08 6.61,-0.13 2.49,-0.28 5.13,-0.88 7.78,-0.9 2.35,-0.02 4.37,0.86 6.63,0.8 0.77,-0.15 1.55,-0.25 2.32,-0.39 2.76,-0.31 6.24,-0.31 8.64,0.43 0,-0.08 0,-0.19 0,-0.27 0.1,0 0.17,0 0.3,0 0,-0.39 0.07,-0.3 -0.3,-0.3 -0.04,-0.16 -0.11,-0.3 -0.15,-0.47 -2.8,-3.71 -6.89,-6.55 -10.14,-9.68 -6.17,-6.04 -12.32,-12.1 -18.47,-18.15 -1.39,-1.42 -3.01,-2.51 -4.38,-3.93 -5.55,-5.66 -10.54,-11.79 -16.22,-17.22 -2.04,-2 -4.11,-3.99 -6.14,-5.95 -1.16,-0.98 -2.28,-1.95 -3.41,-2.94 -1.28,-1.52 -2.55,-3.03 -3.82,-4.53 -3.43,-3.63 -7.07,-7.15 -10.74,-10.58 -1.73,-2.02 -3.44,-4.04 -5.15,-6.08 -3.819,-3.69 -7.624,-7.36 -11.413,-11.06 -6.496,-6.37 -12.89,-12.93 -19.41,-19.21 -2.164,-2.05 -4.059,-4.6 -6.437,-6.21 0,-0.11 0,-0.19 0,-0.3 -0.102,0 -0.2,0 -0.293,0 0,0.09 0,0.19 0,0.3 -0.094,0 -0.188,0 -0.305,0 0.098,0.86 0.183,1.72 0.269,2.59 0.039,1.99 -0.336,4.01 -0.132,6.05 0.238,1.06 0.5,2.1 0.722,3.18 0.141,1.98 -0.57,3.62 0.36,5.32 0.582,1.07 1.91,1.51 2.757,2.32 1.668,1.66 2.629,3.76 4.653,5.09 2.094,1.41 4.734,1.82 7.004,2.91 1.437,0.74 2.59,1.96 3.953,2.8 3.074,2.01 6.621,3.73 8.926,6.9 0.617,1.26 1.254,2.51 1.886,3.77 0.762,1.09 1.543,2.2 2.301,3.29 0.598,1.5 0.52,3.2 0.953,4.79 0.594,2.16 1.68,4.13 1.742,6.68 -0.277,2.21 -0.546,4.41 -0.816,6.62 -0.301,2.85 -1.895,5.41 -3.59,7.56 -0.726,0.9 -1.605,1.79 -2.051,2.86 -0.558,0 0,0.74 0.157,1.05 0.476,0.66 0.922,1.3 1.375,1.94 1.984,2.98 4.015,6.2 6.979,8.39 1.49,1.11 1.69,2.71 2.84,4.07 1.36,1.6 3.39,2.45 4.8,4.12 0.73,0.97 1.47,1.96 2.2,2.91 0.59,1.11 0.87,2.27 1.79,3.23 0.92,0.97 1.96,1.43 2.95,2.25 0.77,0.73 1.55,1.47 2.32,2.2"
         style="fill:#ffffff;fill-opacity:1;fill-rule:nonzero;stroke:none"
         id="path146" />
      <path
         d="m 851.113,1323.55 c 2.836,-0.02 6.371,-0.43 8.934,0.26 2.058,-0.42 4.387,-0.29 6.613,-0.33 1.75,-0.12 3.465,-0.22 5.203,-0.31 2.399,0 4.782,0 7.176,0.01 1.074,-0.2 2.129,-0.38 3.168,-0.57 2.199,-0.01 4.789,1.47 6.934,0.74 2.547,-0.88 4.742,-3.73 6.683,-5.71 3.106,-3.05 6.184,-6.1 9.254,-9.17 2.047,-2.2 3.985,-4.73 6.063,-6.91 2.574,-2.66 5.402,-4.57 7.988,-7.28 1.551,-1.6 2.476,-3.39 3.984,-4.96 0.844,-0.67 1.727,-1.36 2.594,-2.02 1.66,-1.38 3.191,-3.23 4.117,-5.09 -0.918,0 -2.269,-1.98 -2.886,-2.61 -2.383,-2.5 -4.254,-5.03 -5.043,-8.33 -0.204,-1.33 -0.403,-2.65 -0.606,-3.98 -0.434,-2.13 -0.98,-4.22 -0.73,-6.61 0.379,-1.55 0.742,-3.08 1.132,-4.61 0.664,-1.58 1.313,-3.16 1.977,-4.75 0.816,-1.75 1.199,-3.59 2.391,-5.23 0.898,-1.19 2.425,-1.63 3.546,-2.47 1.122,-0.81 1.575,-2.18 2.704,-3.02 1.078,-0.52 2.14,-1.01 3.207,-1.5 1.5,-1 2.964,-1.99 4.445,-2.97 1.969,-1.25 4.375,-2.11 6.105,-3.76 1.137,-1.55 2.258,-3.1 3.391,-4.67 1.027,-1.26 2.699,-2.15 3.441,-3.64 0.493,-1.02 0.879,-2.42 0.938,-3.63 0.059,-1.13 -0.238,-2.4 0.027,-3.48 0.602,-2.55 1.629,-6.18 1.184,-8.91 -2.32,0.01 -7.145,5.84 -8.883,7.55 -3.574,3.34 -7.172,6.68 -10.726,10.02 -2.61,2.77 -5.2,5.54 -7.805,8.32 -5.141,5.36 -10.695,10.36 -15.77,15.64 -2.707,2.83 -5.488,5.62 -8.226,8.48 -1.121,1.33 -2.309,2.67 -3.457,4 -9.418,9.22 -18.75,18.37 -28.102,27.53 -2.48,2.7 -4.973,5.4 -7.476,8.08 -5.372,5.44 -10.34,10.82 -15.961,16 -2.758,2.58 -8.641,6.08 -9.633,9.69 3.98,-0.03 8.023,0.23 12.105,0.2"
         style="fill:#ffffff;fill-opacity:1;fill-rule:nonzero;stroke:none"
         id="path148" />
      <path
         d="m 790.352,1039.68 c -4.215,-3.94 -7.633,-8.5 -11.747,-12.43 -6.074,-5.95 -12.152,-11.87 -18.203,-17.82 -2.015,-2.07 -4.929,-4.22 -6.433,-6.54 -0.082,0 -0.176,0 -0.293,0 -0.008,-0.56 -0.66,1.05 -0.727,1.48 -0.019,2.08 -0.062,4.22 -0.09,6.32 0.118,6.33 0.254,12.68 0.403,19 0.027,5.25 0.097,10.27 0.043,15.26 -0.055,1.74 -0.141,3.48 -0.207,5.19 0.105,4.74 0.386,9.97 0.332,14.98 -0.067,2.12 -0.141,4.22 -0.223,6.34 0.059,3.06 0.305,6.27 0.316,9.5 -0.078,1.94 -0.136,3.84 -0.234,5.77 0.039,5.48 0.043,10.94 0.074,16.41 -0.062,1.65 -0.14,3.28 -0.226,4.9 0.191,2.02 0.386,4.06 0.558,6.05 0.149,4.55 -0.308,8.85 -0.14,13.26 0.164,3.35 0.343,6.72 0.496,10.07 -0.082,7.23 -0.414,14.39 -0.231,21.62 0.223,3.44 0.426,6.91 0.657,10.36 -0.122,1.83 -0.262,3.66 -0.414,5.48 -0.063,7.34 0.191,14.83 0.117,21.88 -0.082,1.55 -0.157,3.09 -0.235,4.62 0.118,1.82 0.235,3.65 0.36,5.46 0.023,2.14 -0.403,4.17 -0.262,6.36 0.148,1.25 0.316,2.48 0.465,3.73 -0.051,3.43 -0.164,6.94 -0.149,10.38 2.95,-1.08 5.301,-4.34 7.559,-6.54 4.992,-4.84 9.953,-9.69 14.906,-14.52 1.719,-1.84 3.43,-3.66 5.145,-5.48 3.742,-3.54 7.48,-7.14 10.859,-11.03 1.137,-1.32 2.203,-2.67 3.539,-3.95 2.449,-2.32 5.082,-4.46 7.461,-6.97 1.039,-1.09 1.555,-2.28 2.68,-3.34 5.75,-5.46 11.832,-10.57 17.64,-16.09 5.54,-5.7 11.063,-11.42 16.571,-17.13 3.504,-3.32 25.625,-24.08 24.312,-27.28 -0.398,-0.6 -0.789,-1.21 -1.218,-1.82 -2.59,-4.44 -8.657,-9.43 -12.625,-13.03 -1.383,-1.23 -2.235,-2.9 -3.559,-4.25 -3.266,-3.32 -6.504,-6.48 -9.774,-9.77 -4.523,-4.49 -9.125,-8.95 -13.683,-13.42 -2.996,-3.05 -5.988,-6.1 -8.965,-9.16 -0.769,-0.89 -1.519,-1.76 -2.281,-2.62 -7.543,-7 -15.035,-14.25 -22.574,-21.23"
         style="fill:#ffffff;fill-opacity:1;fill-rule:nonzero;stroke:none"
         id="path150" />
      <path
         d="m 912.719,902.336 c -2.489,0 -10.789,0.57 -12.254,-0.426 -0.567,-0.383 -0.621,-1.125 -0.66,-1.793 -0.059,-7.695 -0.125,-15.39 -0.184,-23.058 0.043,-3.329 0.434,-8.176 -0.262,-11.477 -0.168,-0.82 -0.625,-1.531 -1.257,-2.043 0,-0.105 0,-0.191 0,-0.316 -2.368,0.035 -4.461,1.039 -6.657,1.394 -2.093,0.309 -4.281,-0.191 -6.3,-0.191 -1.536,0.222 -3.079,0.426 -4.625,0.617 -2.965,0.27 -5.954,0.551 -8.93,0.848 -1.156,0.117 -2.988,0.269 -4.016,-0.184 -6.883,0.051 -13.269,1.418 -19.879,2.055 -3.062,0.328 -6.035,0.289 -8.875,0.793 -2.418,0.414 -4.832,0.8 -7.234,1.195 -1.035,0.238 -2.121,0.492 -3.184,0.715 -1.511,0.086 -3.031,0.14 -4.57,0.238 -3.457,0.617 -6.934,1.235 -10.406,1.863 -2.656,0.356 -6.028,0.395 -8.309,1.551 -0.097,0 -0.191,0 -0.308,0 0,0.196 0,0.387 0,0.578 0.445,0 0.211,-0.105 0.421,0.223 1.547,2.461 4.512,5.074 6.715,7.09 2.024,2.015 4.024,4.019 6.032,6.066 3.082,3.047 6.414,5.805 9.554,8.891 1.547,1.515 3.098,3.039 4.637,4.531 1.273,1.418 2.559,2.856 3.828,4.266 7.926,7.59 16.02,14.976 23.77,22.894 4.781,4.871 9.195,10 14.093,14.707 6.817,6.547 13.543,12.953 20.012,19.77 1.875,1.93 3.785,3.879 5.684,5.836 1.226,-1.746 0.48,-8.391 0.289,-10.668 -0.321,-3.653 -0.387,-7.348 -0.414,-11.235 -0.012,-2.449 -0.321,-5.003 0.457,-7.117 0.707,-2.054 2.16,-3.84 3.398,-5.652 0.672,-1.07 1.031,-2.43 2.262,-3.125 1.754,-0.965 7.312,-1.203 9.621,-1.109 4.066,0.156 8.293,0.445 12.695,0.425 -0.019,-2.797 -1.804,-6.238 -2.754,-8.718 -1.73,-4.379 -3.464,-8.727 -5.101,-13.153 -0.633,-1.64 -1.188,-3.859 -2.363,-5.238 -0.872,-0.938 -2.075,-0.309 -3.192,-0.754 -0.59,-0.105 -1.156,-0.184 -1.734,-0.289"
         style="fill:#ffffff;fill-opacity:1;fill-rule:nonzero;stroke:none"
         id="path152" />
      <path
         d="m 932.32,851.051 c -2.992,0.308 -5.75,2.437 -8.429,3.547 -2.133,0.898 -4.582,1.285 -6.532,2.488 -0.086,0 -0.195,0 -0.277,0 0,0.117 0,0.184 0,0.281 0.098,0 0.191,0 0.289,0 0,0.414 -0.098,0.289 0.277,0.289 4.219,-0.011 24.125,-0.761 25.934,1.012 0.902,0.887 0.879,4.555 0.895,6.039 0.043,9.297 -1.043,21.785 7.503,26.539 1.239,0.703 2.555,0.848 3.895,1.359 2.367,0 8.203,-0.878 7.914,-4.039 -0.059,-0.761 -0.945,-0.761 -1.629,-0.859 -5.64,-0.664 -6.738,-3.742 -9.07,-8.133 -1.902,-3.554 -1.594,-9.66 -1.695,-14.34 -0.11,-4.57 -0.332,-8.91 -0.364,-13.527 -0.093,0 -0.191,0 -0.277,0 0,-0.523 -2.82,0 -3.469,-0.273 -1.566,0.019 -2.926,-0.422 -4.32,-0.5 -3.567,0.039 -7.11,0.078 -10.645,0.117"
         style="fill:#ffffff;fill-opacity:1;fill-rule:nonzero;stroke:none"
         id="path154" />
      <path
         d="m 964.695,845.137 c -0.984,-1.223 -2.007,-2.391 -3.015,-3.633 -2.508,-2.551 -5.094,-4.902 -6.727,-7.969 -0.082,0 -0.168,0 -0.265,0 -1.77,1.977 -3.559,3.926 -5.336,5.895 -1.739,1.55 -5.254,3.566 -7.289,4.57 0,0.086 0,0.164 0,0.277 -0.094,0 -0.192,0 -0.274,0 0,0.078 0,0.188 0,0.274 0.082,0 0.18,0 0.274,0 0.015,0.5 0.468,0.336 0.855,0.394 1.059,0.231 2.137,0.461 3.187,0.657 3.379,0.113 6.731,0.23 10.086,0.308 0.157,0.578 0.313,1.156 0.465,1.735 0.149,1.449 0.258,2.882 0.387,4.332 -0.137,1.32 -0.289,2.671 -0.426,4.011 0.078,1.36 0.137,2.692 0.188,4.039 -0.028,2.883 -0.379,6.008 -0.149,8.942 0.348,1.636 0.696,3.277 1.047,4.898 0.367,1.996 0.906,4.426 2.27,5.903 1.379,1.543 3.297,1.39 5.066,2.121 0.57,-0.27 1.223,-0.578 1.445,-1.262 0.606,-1.91 0.149,-4.457 0.125,-6.539 0.082,-4.977 0.125,-9.961 0.153,-14.969 0.195,-1.176 0.965,-2.199 1.453,-3.238 0.715,-1.621 1.406,-3.223 2.117,-4.852 0.277,0 0.293,0.02 0.191,-0.222 -1.265,-2.383 -3.855,-4.012 -5.828,-5.672"
         style="fill:#ffffff;fill-opacity:1;fill-rule:nonzero;stroke:none"
         id="path156" />
      <path
         d="m 976.02,852.988 c -1.352,1.137 -2.325,3.742 -2.473,5.516 1.437,-0.02 3.07,-0.133 4.34,0.25 3.324,-0.008 6.605,-0.219 9.773,-0.336 0,-0.184 0,-0.387 0,-0.578 -1.074,0.008 -2.394,-0.84 -3.273,-1.246 -2.649,-1.196 -5.324,-2.379 -7.981,-3.578 0,-0.356 -0.152,-0.219 -0.386,-0.028"
         style="fill:#ffffff;fill-opacity:1;fill-rule:nonzero;stroke:none"
         id="path158" />
      <path
         d="m 876.344,1089.5 c 0.051,2.61 0.558,5.33 0.578,8.05 -0.184,2.99 -0.348,5.94 -0.5,8.94 -0.067,4.94 0.523,9.65 0.621,14.4 -0.156,2.9 -0.305,5.78 -0.441,8.66 0.07,2.2 0.168,4.41 0.234,6.6 -0.164,2.22 -0.332,4.45 -0.492,6.64 0.019,3.6 1.062,6.73 1.148,10.36 -0.14,2.02 -0.293,4.04 -0.472,6.08 0.082,1.13 0.132,2.29 0.214,3.45 0.157,4.28 0.672,8.33 0.696,12.66 0.015,2.94 -0.465,7.43 0.308,10.01 0.762,2.69 8.649,11.63 11.364,12.67 0,0.1 0,0.2 0,0.29 0.582,-2.22 0.25,-5.19 0.011,-7.48 -0.277,-2.77 -0.465,-5.67 -0.371,-8.63 0.16,-1.91 0.321,-3.84 0.496,-5.78 0.016,-3.64 0.039,-7.3 0.055,-10.94 -0.125,-1.64 -0.266,-3.27 -0.387,-4.9 0.082,-1.93 0.153,-3.85 0.219,-5.76 -0.105,-5.11 -0.387,-10.92 -0.246,-16.14 0.148,-5.68 -0.629,-11.69 -0.473,-17.27 0.172,-2.11 0.336,-4.23 0.496,-6.35 0.032,-4.32 0.063,-8.64 0.086,-12.96 -0.136,-2.03 -0.312,-4.03 -0.465,-6.06 -0.007,-3.36 -0.039,-6.71 -0.05,-10.06 -0.024,-4.05 0.531,-11.21 -0.633,-14.6 -0.371,-1.08 -1.695,-1.77 -2.313,-2.71 -0.925,-1.28 -1.875,-2.57 -2.804,-3.87 -0.926,-0.89 -1.875,-1.77 -2.789,-2.66 -0.954,-1.81 -1.926,-3.66 -2.86,-5.49 -0.109,0 -0.183,0 -0.277,0 0,-0.08 0,-0.19 0,-0.28 -0.098,0 -0.219,0 -0.309,0 0.032,5.43 -0.797,11.28 -0.867,16.7 -0.047,3.22 0.508,6.7 0.676,9.79 0.125,2.37 -0.484,4.39 -0.453,6.64"
         style="fill:#ffffff;fill-opacity:1;fill-rule:nonzero;stroke:none"
         id="path160" />
      <path
         d="m 881.777,1053.78 c 1.411,3.42 2.567,4.45 5.352,6.83 1.508,1.34 2.805,3 4.48,4.07 7.375,4.79 18.946,4.74 28.063,2.85 1.754,-0.5 3.496,-0.98 5.242,-1.48 5.801,-1.11 11.047,-1.78 15.973,-4.68 3.226,-1.89 5.875,-4.53 8.843,-6.96 0.762,-0.5 1.555,-1 2.317,-1.46 1.363,-1.04 2.797,-3.25 4.691,-3.21 2.7,0.02 4.403,3.5 6.414,4.92 2.227,1.64 4.442,3.38 6.934,4.59 6.785,3.27 13.559,6.68 21.051,8.53 2.711,0.62 5.398,1.26 8.097,1.89 1.546,0.28 3.226,0.11 4.606,0.67 2.3,-0.04 4.58,-0.09 6.89,-0.14 3.81,-0.59 7.8,-2.48 10.78,-4.73 1.32,-1.48 2.63,-2.92 3.95,-4.41 2.11,-2.28 4.41,-4.69 4.79,-7.84 -0.1,0 -0.2,0 -0.31,0 -0.01,-0.55 -2.28,-0.3 -2.88,-0.3 -6.04,0.05 -12.08,0.07 -18.14,0.11 -2.21,0.02 -5.18,0.42 -6.92,-0.52 -2.008,0.01 -4.801,1.23 -6.629,0.32 -0.644,-0.09 -1.328,-0.19 -2.004,-0.28 -2.273,0 -5.054,0.36 -6.937,-0.53 -0.981,0 -2.09,-0.19 -2.864,-0.57 -1.953,0 -6.035,0.5 -7.507,-0.25 -0.86,-0.08 -1.719,-0.17 -2.59,-0.26 -0.852,-0.12 -1.723,-0.19 -2.59,-0.27 -1.371,0 -3.191,-0.19 -4.024,-1.13 -0.5,0 -0.113,-1.54 -0.093,-2.05 0.121,-5.09 -3.657,-9.73 -8.93,-9.69 -4.262,0.03 -7.59,3.09 -8.418,6.97 -0.277,1.33 0.07,3.21 -0.777,4.27 -0.367,0.45 -1.063,0.75 -1.684,0.6 -2.019,0.1 -4.015,0.22 -6.047,0.34 -0.461,-0.12 -0.961,-0.19 -1.445,-0.3 -4.715,0.02 -8.922,0.62 -13.816,0.64 -1.243,0.02 -3.036,0.25 -4.032,-0.25 -3.472,0.02 -6.773,0.32 -10.367,0.32 -1.703,0.03 -3.859,0.2 -5.183,-0.53 -5.059,0.03 -10.239,0.44 -15.286,0.38 -1.785,0 -4.269,0.43 -5.757,-0.26 -1.547,0.01 -3.071,0.03 -4.305,0.61 0,1.19 0.652,2.21 1.062,3.19"
         style="fill:#ffffff;fill-opacity:1;fill-rule:nonzero;stroke:none"
         id="path162" />
      <path
         d="m 1033.54,1130.39 c -0.19,0 -0.37,0 -0.56,0 -0.92,2.29 -0.58,4.49 -0.56,7.2 0.02,3.45 -0.74,6.93 0.93,9.81 0.91,-0.19 1.61,-0.45 2,-1.3 0.86,-1.96 0.73,-15.73 -1.81,-15.71 z m -4.4,35.45 c 0,-0.09 0,-0.2 0,-0.27 -2.25,0.44 -2.64,2.19 -1.41,4.02 1.19,-0.57 2.53,-3.75 1.41,-3.75 z m -0.74,-42.08 c -0.12,-0.29 -1.81,-2.69 -1.81,-1.1 -0.39,0.86 -0.29,2.16 -0.29,3.18 -0.09,2.63 -0.04,5.61 -0.1,8.34 -0.02,3.63 -0.04,7.3 -0.06,10.94 0.02,2.94 -0.26,6.03 0.9,8.36 0.88,-0.43 1.54,-1.16 1.8,-2.08 0.85,-3.19 0.18,-6.82 0.16,-10.33 -0.02,-4.76 1.2,-13.14 -0.6,-17.31 z m 10.23,44.36 c -0.03,2.7 -0.53,5.46 -0.75,8.07 -0.07,1.43 -0.15,2.88 -0.23,4.33 -0.06,0.55 0.16,3.14 -0.34,3.16 0,0.09 0,0.18 0,0.28 -0.29,0 -0.58,0 -0.87,0 -0.59,-5.66 -0.28,-11.87 -0.42,-17.86 -0.05,-2.32 -1.07,-4.04 -1.25,-6.05 0.01,-1.15 0.03,-2.31 0.07,-3.45 -0.11,-1.05 -0.2,-2.12 -0.29,-3.17 -1.4,-0.2 -2.39,0.16 -2.69,1.52 -0.45,1.93 0.51,3.56 0.46,5.4 -0.16,1.26 -0.26,2.51 -0.42,3.77 -0.06,6.82 0.56,14.05 0.5,20.73 -0.13,1.16 -0.24,2.31 -0.36,3.44 -0.17,0.58 -0.32,1.15 -0.44,1.75 -0.31,0 -0.59,0 -0.9,0.01 0,-0.1 0,-0.21 0,-0.3 -0.1,0 -0.19,0 -0.29,0 -0.16,-4.88 -0.72,-9.27 -0.97,-14.1 -0.19,-0.86 -0.36,-1.73 -0.55,-2.59 -0.29,0 -0.57,0 -0.87,0 -1.52,3.79 -1.04,8.77 -1.09,13.25 -0.03,2.42 0.23,4.9 -0.51,6.92 -0.88,-1.55 -0.82,-3.17 -0.98,-5.16 -0.18,-2.3 -0.33,-5.07 -0.21,-7.5 0.13,-2.56 0.61,-5.41 0.41,-8.08 -1.43,-16.52 -0.67,-32.71 -0.77,-49.53 -0.09,-3.36 -0.17,-6.72 -0.23,-10.07 -0.23,-2.86 -0.7,-5.95 -0.73,-8.96 -0.02,-4.14 0.27,-8.57 0.19,-12.97 -0.08,-4.09 -0.54,-8.68 -0.29,-12.94 0.04,-0.57 0.13,-2.04 0.8,-2.04 0,-0.08 0,-0.18 0,-0.27 0.09,0 0.18,0 0.28,0 0,0.09 0,0.19 0,0.27 0.09,0 0.22,0 0.29,0 0.77,2.44 0.52,5.29 0.63,8.08 0.17,4.53 0.74,9.12 0.61,13.83 -0.07,2.93 -0.69,6.62 0.32,9.42 0.17,0.48 0.52,0.63 1.07,0.48 1.12,-0.31 1.37,-2 1.52,-3.01 0.57,-3.51 -0.08,-6.98 -0.28,-10.67 -0.03,-2.88 -0.04,-5.76 -0.07,-8.64 -0.01,-3.15 -0.21,-6.52 0.13,-9.51 0.17,-1.67 -0.19,-3.27 0.29,-4.82 0.28,-0.9 0.47,-2.97 1.78,-2.97 0.31,4.76 0.49,10.13 0.52,14.99 -0.1,2.3 -0.24,4.61 -0.35,6.92 0.22,2.28 0.43,4.6 0.65,6.89 0.24,1.55 0.47,3.09 0.71,4.62 0.01,2.14 -0.65,4.21 -0.91,6.07 -0.44,3.1 -0.35,6.42 -0.34,9.79 0.01,1.76 0.02,3.56 0.5,5.14 0.15,0.52 0.98,0.98 0.98,1.46 0.1,0 0.2,0 0.28,0 1.02,-0.89 1.65,-1.8 1.87,-3.2 0.5,-3.51 0.25,-7.9 0.01,-11.48 -0.1,-1.28 -0.51,-2.35 -0.49,-3.76 0.03,-3.17 0.85,-6.51 0.93,-9.79 -0.07,-1.34 -0.13,-2.68 -0.19,-4.03 -0.04,-5.84 -0.07,-11.08 -0.09,-17.01 -0.03,-4.22 0.36,-8.73 0.78,-12.72 -0.09,-0.75 -0.19,-1.5 -0.3,-2.27 0.39,0 0.77,0 1.16,0 1.15,2.48 0.81,5.58 0.93,8.66 0.11,3.24 0.6,6.98 0.21,10.33 -0.3,2.21 -0.62,4.42 -0.95,6.67 0.05,2.32 0.78,4.44 0.85,6.89 0.08,3.62 -0.54,6.85 -0.52,10.38 0.22,3.73 0.44,7.48 0.64,11.24 0,2.86 0.03,5.75 0.01,8.63 -0.13,1.15 -0.29,2.3 -0.45,3.45 -0.03,1.84 0.49,3.32 0.54,5.18 -0.07,2.99 -0.15,5.95 -0.22,8.94 0,4.57 0.31,9.1 0.34,13.84 0.04,4.86 0.39,9.44 0.35,14.12"
         style="fill:#ffffff;fill-opacity:1;fill-rule:nonzero;stroke:none"
         id="path164" />
      <path
         d="m 1007.82,1173.52 c -1.1,-0.76 -2.74,-1.08 -4,-1.45 -3.27,-0.98 -6.515,-1.98 -9.777,-2.98 -4.469,-1.39 -9.055,-3.08 -13.234,-5.14 -2.93,-1.7 -5.868,-3.41 -8.836,-5.13 -0.485,-0.24 -4.535,-2.37 -4.52,-1.25 -0.121,0 -0.195,0 -0.305,0 0.387,3.03 3.887,5.1 6.258,6.48 1.145,0.81 2.309,1.63 3.446,2.47 2.925,1.87 6.074,3.68 9.179,5.12 3.278,1.54 6.766,2.37 10.219,3.54 1.191,0.54 2.363,1.05 3.52,1.57 1.56,0.54 3.11,1.1 4.67,1.62 1.19,0 2.59,0.1 3.66,-0.25 2.24,-0.8 1.14,-3.55 -0.28,-4.6 z m -0.47,-70.45 c -2.34,-1.41 -5.47,-1.39 -8.221,-2 -2.496,-0.51 -4.973,-1.28 -7.524,-1.86 -8.57,-1.98 -15.679,-5.42 -23.003,-9.81 -0.914,-0.52 -3.321,-2.82 -4.227,-1.13 -0.664,1.16 1.113,2.38 1.828,3.02 2.867,2.49 5.801,4.16 8.902,6.1 3.438,2.15 6.868,4.06 10.653,5.52 1.211,0.67 2.414,1.31 3.637,1.97 4.71,1.86 9.578,3.02 14.375,4.65 1.34,0 2.75,-0.03 3.86,-0.58 2.32,-1.22 1.71,-4.68 -0.28,-5.88 z m -40.217,23.51 c 6.926,6.44 15.918,9.61 24.375,13.05 2.687,1.1 5.816,3.05 8.982,3.04 1.07,0.83 3.48,2.01 4.9,1.99 0,0.11 0,0.18 0,0.3 1.67,-0.28 2.94,-1 2.99,-2.89 0.05,-1.64 -0.77,-2.98 -2.03,-3.81 -2.52,-1.68 -5.55,-1.96 -8.448,-2.96 -3.254,-1.09 -6.644,-2.32 -9.933,-3.32 -2.246,-0.68 -4.496,-1.16 -6.633,-2.02 -3.887,-1.57 -7.766,-3.58 -11.352,-5.75 -1.277,-0.77 -2.605,-1.98 -4.218,-2.03 -0.391,-0.02 -0.821,0.01 -1.082,0.29 -1.383,1.39 1.636,3.39 2.449,4.11 z m 53.437,10.81 c -0.15,1.7 -0.31,3.43 -0.48,5.18 -0.08,7.23 0.34,14.64 0.38,21.59 -0.07,2.22 -0.15,4.42 -0.23,6.65 -0.06,5.5 0.04,10.84 -0.27,16.13 -0.3,1.65 -0.58,3.28 -0.9,4.94 -0.29,1.89 0.09,4.04 0.21,6 0.01,0.66 0.19,2.59 -0.62,2.6 -1.39,0.66 -2.99,0.36 -4.59,0.43 -1.88,0.12 -3.72,0.48 -5.77,0.5 -2.16,-0.77 -4.84,-0.52 -7.16,-0.96 -10.667,-1.99 -20.636,-3.54 -29.863,-8.44 -2.261,-1.21 -4.699,-2.51 -6.429,-4.58 -1.313,-1.58 -1.352,-3.55 -1.66,-5.63 -0.75,-4.91 -0.731,-10.16 -0.911,-15.57 -0.191,-2.7 -0.379,-5.39 -0.574,-8.09 -0.051,-3.89 -0.062,-7.84 -0.109,-11.78 -0.18,-1.54 -0.336,-3.07 -0.52,-4.6 -0.363,-3.65 -0.265,-7.69 -0.398,-11.26 -0.192,-5.5 0.125,-11.13 0.242,-16.42 0.125,-5.06 -0.207,-10.54 -0.145,-15.83 0.125,-1.44 0.25,-2.87 0.368,-4.33 -0.118,-0.86 -0.211,-1.74 -0.332,-2.59 -0.016,-2.44 0.464,-4.84 0.449,-7.49 -0.039,-7.09 -0.223,-16.21 2.597,-21.84 0.149,-0.29 1.036,-1.56 1.036,-0.94 3.183,1.24 6.019,3.71 9,5.33 2.652,1.45 5.531,2.32 8.191,3.73 3.211,1.71 4.887,2.93 9.086,2.88 1.191,0.77 4.734,1.44 6.352,1.41 0.683,0.1 1.343,0.18 1.996,0.27 0.594,0.1 1.174,0.17 1.724,0.3 3.07,1.5 10.19,0.11 13.28,-0.66 1.51,-0.39 3.06,-0.78 4.61,-1.17 0.73,4.45 0,9.5 -0.1,13.83 0.15,2.48 0.32,4.98 0.48,7.47 0.03,3.14 -0.2,6.3 -0.15,9.24 0.16,1.55 0.33,3.08 0.49,4.61 0.18,3.63 -0.03,7.11 0.16,10.65 0.11,2.06 0.44,4.26 0.49,6.34 0.07,3.98 0.19,7.99 0.07,12.1"
         style="fill:#ffffff;fill-opacity:1;fill-rule:nonzero;stroke:none"
         id="path166" />
      <path
         d="m 951.922,1155.91 c -0.328,-0.63 -1.371,-0.67 -1.996,-0.55 -1.715,0.36 -3,1.93 -4.453,2.78 -1.668,0.96 -3.352,1.9 -5.028,2.84 -8.945,4.53 -19.047,7.16 -28.812,9.87 -2.817,0.79 -6.473,0.6 -8.895,2.11 -1.984,1.26 -2.023,3.93 -0.293,5.41 4.2,-0.02 7.586,-1.36 11.27,-2.47 1.125,-0.22 2.242,-0.44 3.34,-0.67 2.422,-0.66 4.746,-1.66 7.043,-2.58 2.05,-0.71 4.074,-1.44 6.14,-2.14 0.973,-0.54 1.961,-1.08 2.926,-1.6 2.816,-1.31 5.617,-2.64 8.418,-3.95 1.742,-0.82 11.402,-6.84 10.34,-9.05 z m -1.121,-35.99 c -0.207,-0.08 -0.399,-0.16 -0.598,-0.21 -0.121,-0.02 -0.207,-0.06 -0.312,-0.08 -2.012,-0.29 -10.137,6.37 -12.598,7.51 -2.887,1.38 -5.871,2.47 -8.867,3.64 -4.012,1.54 -7.914,3.32 -12.426,3.92 -1.719,0.22 -3.422,0.44 -5.168,0.68 -2.348,0.12 -6.019,-0.41 -7.766,0.97 -2.14,1.73 -0.746,6.31 2.075,6.3 0,0.08 0,0.17 0,0.27 12.726,-0.9 23.73,-6.71 34.062,-12.53 2.789,-1.57 9.992,-5.91 11.457,-8.83 0.172,-0.33 0.707,-1.65 0.141,-1.64 z m -6.891,-31.55 c -4.926,2.33 -10.191,4.19 -15.484,5.86 -1.836,0.57 -3.75,0.8 -5.684,1.19 -2.801,0.58 -5.73,1.39 -8.679,1.85 -3.266,0.5 -6.606,0.64 -9.762,1.32 -0.352,0.15 -0.707,0.29 -1.063,0.42 -2.605,1.44 -2.644,6.49 1.11,6.46 0,0.09 0,0.19 0,0.3 2.347,-0.01 4.062,-0.61 6.074,-1.04 2.09,-0.46 4.223,-0.65 6.269,-1.15 1.747,-0.65 3.485,-1.29 5.207,-1.9 5.145,-1.66 9.829,-3.37 14.645,-5.64 1.137,-0.41 2.266,-0.85 3.418,-1.24 2.742,-1.21 6.715,-4.14 8.695,-6.5 0.758,-0.85 1.961,-1.37 1.961,-2.66 -2.406,-0.3 -4.758,1.81 -6.707,2.73 z m 10.461,87.43 c -0.402,4.24 0.164,8.73 -2.238,11.95 -4.504,6.09 -10.653,8.29 -17.238,10.78 -1.766,0.59 -3.493,1.21 -5.262,1.81 -1.992,0.38 -3.973,0.75 -5.981,1.12 -3.054,0.77 -6.57,1.41 -9.839,1.57 -4.618,0.05 -9.208,0.08 -13.817,0.13 -1.367,-0.62 -3.625,-0.41 -4.516,-1.75 -0.894,-1.36 -0.425,-6.6 -0.425,-8.6 -0.043,-7.79 -0.391,-15.58 -0.442,-23.61 -0.027,-4.71 -0.062,-9.42 -0.097,-14.11 -0.278,-3.94 -0.539,-7.88 -0.801,-11.83 -0.113,-2.81 1.027,-5.37 0.949,-8.34 -0.121,-5.78 -0.242,-12.14 -0.359,-18.15 -0.211,-2.5 -0.383,-5.01 -0.594,-7.48 -0.082,-5.13 0.289,-9.92 0.18,-14.99 -0.18,-2.5 -0.383,-4.99 -0.578,-7.47 -0.02,-2.43 0.73,-4.43 0.703,-6.63 -0.008,-2.6 -0.493,-5.07 -0.508,-7.78 1.043,-0.02 2.101,-0.04 3.168,-0.04 0.789,0.39 1.894,0.58 2.867,0.58 0.816,0.39 1.926,0.54 2.891,0.54 0.687,0.13 1.351,0.2 2.007,0.27 2.747,1.21 10.204,-0.33 12.997,-0.77 3.542,-0.62 6.851,-0.48 10.312,-1.21 4.066,-0.86 10.23,-3.21 13.746,-5.28 1.246,-0.74 8.336,-6.22 8.973,-6.22 0,0.08 0,0.18 0,0.27 1.844,3.05 1.66,6.01 2.183,9.78 0.586,4.25 0.672,8.57 0.856,13.25 0.219,6.61 0.617,13.42 0.656,20.18 -0.059,2.87 -0.113,5.76 -0.195,8.62 0.308,8.31 0.234,16.36 0.406,24.5 0.262,12.71 1.113,26.24 -0.004,38.91"
         style="fill:#ffffff;fill-opacity:1;fill-rule:nonzero;stroke:none"
         id="path168" />
      <path
         d="m 936.395,1429.16 c -4.379,-0.53 -8.758,-1.07 -13.137,-1.59 -3.778,-0.59 -7.496,-1.26 -11.606,-1.4 -8.945,-1.72 -17.89,-3.43 -26.839,-5.15 -12.586,-2.56 -24.504,-7.87 -36.04,-12.63 -21.613,-8.91 -41.98,-19.27 -61.601,-32.21 -4.649,-3.05 -37.074,-25.78 -37.07,-29.32 5.277,-0.41 10.586,-0.84 15.871,-1.25 12.726,-0.75 26.015,-0.26 38.664,-0.26 7.816,-0.39 15.652,-0.8 23.461,-1.17 3.082,1.43 7.996,0.68 11.742,0.69 10.687,0.01 20.851,-0.67 31.055,-0.66 5.257,2.21 13.738,0.27 19.328,0.07 17.254,0 34.507,-0.01 51.765,-0.01 19.332,-0.43 38.653,-0.88 57.969,-1.3 35.673,0.46 71.353,0.97 106.993,1.44 2.66,0.96 6.62,0.03 9.68,0.03 6.19,-0.17 12.42,-0.35 18.61,-0.53 3.21,0.16 6.44,0.32 9.66,0.49 6.08,-0.17 12.8,-0.78 19.32,-0.59 1.41,0.07 5.48,-0.22 6.94,-0.22 4.37,0 -3.5,6.25 -4.87,7.78 -4.49,5.08 -9.49,8.57 -14.81,12.11 -3.19,2.51 -6.36,5.04 -9.56,7.56 -6.5,4.35 -13.03,8.67 -19.54,13.03 -40.77,24.63 -80.13,39.17 -130.802,44.17 -7.359,0.14 -14.699,0.29 -22.051,0.45 -10.703,0.17 -22.261,0.48 -33.132,0.47"
         style="fill:#de1a34;fill-opacity:1;fill-rule:nonzero;stroke:none"
         id="path170" />
      <path
         d="m 732.934,1330.94 c -4.438,-4.52 -11,-11.08 -15.442,-15.6 -9.199,-12.39 -18.387,-24.77 -27.582,-37.16 -19.344,-32.61 -31.144,-66.53 -39.48,-104.56 -1.36,-6.07 -1.328,-12.1 -1.926,-18.55 -2.973,-31.34 -3.836,-66.57 1.176,-97.47 1.363,-5.12 2.734,-10.24 4.093,-15.3 1.536,-8.44 2.793,-16.23 5.438,-24.07 2.652,-6.51 5.309,-12.98 7.957,-19.472 3.172,-9.535 8.012,-18.11 12.551,-26.926 10.75,-20.945 23.222,-40.852 38.379,-59.793 2.215,-2.73 7.754,-10.418 11.679,-10.418 0.004,0.242 0.004,0.445 0.004,0.695 3.043,5.789 0.93,23.301 0.707,30.391 -0.043,11.949 -0.074,23.898 -0.097,35.887 -0.016,10.676 -0.43,21.957 0.097,33.116 1.09,23.78 0.153,48.42 0.508,72.49 0.297,20.35 1.344,41.31 1.324,62.12 -0.015,19.55 -1.168,41.02 0.504,59.97 -0.156,2.1 -0.312,4.2 -0.48,6.34 -0.031,5.94 -0.035,11.93 -0.059,17.91 0.332,8.25 0.672,16.5 1.008,24.77 -0.551,17.78 -0.438,35.85 -1.012,53.92 -0.433,12.69 1.137,24.91 0.653,31.71"
         style="fill:#de1a34;fill-opacity:1;fill-rule:nonzero;stroke:none"
         id="path172" />
      <path
         d="m 1188.18,1329.01 c -0.98,-12.17 1.04,-31.05 0.87,-43.85 -0.43,-27.59 -0.54,-55.01 -0.52,-83.56 0.05,-46.61 0.06,-88.9 0.1,-133.92 0.02,-25.18 -1.26,-50.29 -0.01,-75.895 -0.1,-10.367 -0.16,-20.734 -0.26,-31.082 0.02,-19.039 2.18,-38.933 -1.8,-57.246 -0.27,-1.082 -2.73,-9.269 -0.78,-9.269 6.52,0 36.45,43.207 40.64,50.109 3.02,5.516 6.03,11.004 9.05,16.512 1.65,3.742 3.32,7.472 4.97,11.254 5.81,10.3 12.48,22.839 16.37,34.177 8.16,23.97 13.09,48.59 16.53,74.99 1.13,8.66 0.79,17.04 0.94,26.18 0.21,4.84 0.42,9.66 0.63,14.49 -0.43,25.85 -3.46,53.19 -10.11,76.17 -6.61,22.72 -16.9,44.81 -28.21,65.27 -3.95,7.16 -8.86,13.7 -13.27,20.67 -5.91,9.29 -31.24,47.91 -35.14,45"
         style="fill:#de1a34;fill-opacity:1;fill-rule:nonzero;stroke:none"
         id="path174" />
      <path
         d="m 1146.66,861.293 c -17.69,-13.301 -54.47,-14.699 -77.87,-17.563 -6,-0.773 -12,-1.535 -18.02,-2.277 -29.19,-1.398 -67.637,-4.117 -78.133,-34.101 -1.086,-3.243 -0.977,-3.914 -2.074,-7.145 -0.477,-2.855 13.019,-0.156 19.23,-0.137 1.785,0.899 4.691,0.664 6.91,0.676 1.375,0.25 2.758,0.473 4.137,0.695 3.45,1.918 8.78,2.082 13.11,2.102 2.89,1.457 6.81,1.379 10.36,1.379 3.79,2.074 13.06,3.473 17.93,3.473 8.25,2.824 16.51,5.668 24.74,8.523 23.39,9.488 48.24,19.027 68.23,35.047 2.96,2.363 6.68,3.125 11.45,9.328"
         style="fill:#de1a34;fill-opacity:1;fill-rule:nonzero;stroke:none"
         id="path176" />
      <path
         d="m 782.969,855.418 c 5.183,-6.238 12.554,-7.676 19.004,-12.074 3.683,-2.699 9.07,-5.528 12.722,-8.215 14.137,-6.774 24.825,-12.328 39.266,-17.109 15.887,-5.278 31.434,-10.301 48.527,-13.418 5.778,-1.059 45.164,-8.215 46.637,-4.532 2.367,5.969 -10.473,20.602 -14.941,24.371 -4.161,3.532 -9.215,5.778 -13.786,8.286 -4.414,2.418 -9.597,3.82 -14.46,5.148 -6.422,1.777 -12.645,3.82 -19.493,4.969 -6.547,1.105 -13.023,1.156 -19.937,1.812 -6.016,0.953 -11.996,1.938 -18.024,2.91 -7.785,1.063 -15.582,0.965 -23.359,1.942 -14.281,1.762 -27.617,5.043 -42.156,5.91"
         style="fill:#de1a34;fill-opacity:1;fill-rule:nonzero;stroke:none"
         id="path178" />
    </g>
  </g>
</svg>
